<svg width="68" height="68" viewBox="0 0 68 68" fill="none" xmlns="http://www.w3.org/2000/svg">
<rect x="1" y="1" width="66" height="66" rx="33" fill="#FEFEFE" stroke="#AEC5CE" stroke-width="2" stroke-dasharray="2 2"/>
<path d="M43.3332 23.3335H24.6665C23.6056 23.3335 22.5882 23.7549 21.8381 24.5051C21.0879 25.2552 20.6665 26.2726 20.6665 27.3335V40.6668C20.6665 41.7277 21.0879 42.7451 21.8381 43.4953C22.5882 44.2454 23.6056 44.6668 24.6665 44.6668H43.3332C44.394 44.6668 45.4115 44.2454 46.1616 43.4953C46.9117 42.7451 47.3332 41.7277 47.3332 40.6668V27.3335C47.3332 26.2726 46.9117 25.2552 46.1616 24.5051C45.4115 23.7549 44.394 23.3335 43.3332 23.3335ZM42.7865 26.0002L34.9465 33.8402C34.8226 33.9651 34.6751 34.0643 34.5126 34.132C34.3501 34.1997 34.1759 34.2346 33.9998 34.2346C33.8238 34.2346 33.6495 34.1997 33.4871 34.132C33.3246 34.0643 33.1771 33.9651 33.0532 33.8402L25.2132 26.0002H42.7865ZM44.6665 40.6668C44.6665 41.0205 44.526 41.3596 44.276 41.6096C44.0259 41.8597 43.6868 42.0002 43.3332 42.0002H24.6665C24.3129 42.0002 23.9737 41.8597 23.7237 41.6096C23.4736 41.3596 23.3332 41.0205 23.3332 40.6668V27.8802L31.1732 35.7202C31.9232 36.4692 32.9398 36.89 33.9998 36.89C35.0598 36.89 36.0765 36.4692 36.8265 35.7202L44.6665 27.8802V40.6668Z" fill="#AEC5CE"/>
</svg>
