<svg width="125" height="32" viewBox="0 0 125 32" fill="none" xmlns="http://www.w3.org/2000/svg">
<path d="M19.137 13.5644L18.9715 15.7663H16.8248V23.1418H13.9994V15.7663H12.5688V13.5644H13.9994V11.9133V11.4364C13.9994 11.4364 13.8983 8.99899 16.8248 8.86723C18.2469 8.80365 19.4315 9.12423 19.4315 9.12423L19.1309 11.289C19.1309 11.289 16.8248 10.5743 16.8248 11.9673V13.564H19.137V13.5644Z" fill="#AEC5CE"/>
<path d="M15.9996 32C7.17788 32 0 24.8221 0 15.9996C0 7.17712 7.17788 0 15.9996 0C24.8221 0 32 7.17712 32 15.9996C32 24.8221 24.8221 32 15.9996 32ZM15.9996 2.19806C8.38932 2.19806 2.19806 8.38932 2.19806 15.9996C2.19806 23.6099 8.38932 29.8016 15.9996 29.8016C23.6107 29.8016 29.8016 23.6099 29.8016 15.9996C29.8016 8.38932 23.6107 2.19806 15.9996 2.19806Z" fill="#AEC5CE"/>
<path d="M45.1172 9.625V21H43.1562V9.625H45.1172ZM49.7578 14.6016V16.1562H44.6172V14.6016H49.7578ZM50.4062 9.625V11.1875H44.6172V9.625H50.4062ZM55.0078 11.1406L51.6094 21H49.5547L53.8359 9.625H55.1484L55.0078 11.1406ZM57.8516 21L54.4453 11.1406L54.2969 9.625H55.6172L59.9141 21H57.8516ZM57.6875 16.7812V18.3359H51.5V16.7812H57.6875ZM67.7812 17.2969H69.7344C69.6719 18.0417 69.4635 18.7057 69.1094 19.2891C68.7552 19.8672 68.2578 20.3229 67.6172 20.6562C66.9766 20.9896 66.1979 21.1562 65.2812 21.1562C64.5781 21.1562 63.9453 21.0312 63.3828 20.7812C62.8203 20.526 62.3385 20.1667 61.9375 19.7031C61.5365 19.2344 61.2292 18.6693 61.0156 18.0078C60.8073 17.3464 60.7031 16.6068 60.7031 15.7891V14.8438C60.7031 14.026 60.8099 13.2865 61.0234 12.625C61.2422 11.9635 61.5547 11.3984 61.9609 10.9297C62.3672 10.4557 62.8542 10.0938 63.4219 9.84375C63.9948 9.59375 64.638 9.46875 65.3516 9.46875C66.2578 9.46875 67.0234 9.63542 67.6484 9.96875C68.2734 10.3021 68.7578 10.763 69.1016 11.3516C69.4505 11.9401 69.6641 12.6146 69.7422 13.375H67.7891C67.737 12.8854 67.6224 12.4661 67.4453 12.1172C67.2734 11.7682 67.0182 11.5026 66.6797 11.3203C66.3411 11.1328 65.8984 11.0391 65.3516 11.0391C64.9036 11.0391 64.513 11.1224 64.1797 11.2891C63.8464 11.4557 63.5677 11.7005 63.3438 12.0234C63.1198 12.3464 62.9505 12.7448 62.8359 13.2188C62.7266 13.6875 62.6719 14.224 62.6719 14.8281V15.7891C62.6719 16.362 62.7214 16.8828 62.8203 17.3516C62.9245 17.8151 63.0807 18.2135 63.2891 18.5469C63.5026 18.8802 63.7734 19.138 64.1016 19.3203C64.4297 19.5026 64.8229 19.5938 65.2812 19.5938C65.8385 19.5938 66.2891 19.5052 66.6328 19.3281C66.9818 19.151 67.2448 18.8932 67.4219 18.5547C67.6042 18.2109 67.724 17.7917 67.7812 17.2969ZM78.9609 19.4453V21H72.9219V19.4453H78.9609ZM73.4766 9.625V21H71.5156V9.625H73.4766ZM78.1719 14.375V15.9062H72.9219V14.375H78.1719ZM78.9219 9.625V11.1875H72.9219V9.625H78.9219ZM84.8281 15.8594H81.9297L81.9141 14.4297H84.4453C84.8724 14.4297 85.2344 14.3672 85.5312 14.2422C85.8333 14.112 86.0625 13.9271 86.2188 13.6875C86.375 13.4427 86.4531 13.1484 86.4531 12.8047C86.4531 12.4245 86.3802 12.1146 86.2344 11.875C86.0885 11.6354 85.8646 11.4609 85.5625 11.3516C85.2656 11.2422 84.8854 11.1875 84.4219 11.1875H82.5234V21H80.5625V9.625H84.4219C85.0469 9.625 85.6042 9.6849 86.0938 9.80469C86.5885 9.92448 87.0078 10.112 87.3516 10.3672C87.7005 10.6172 87.9635 10.9349 88.1406 11.3203C88.3229 11.7057 88.4141 12.1641 88.4141 12.6953C88.4141 13.1641 88.3021 13.5938 88.0781 13.9844C87.8542 14.3698 87.5234 14.6849 87.0859 14.9297C86.6484 15.1745 86.1042 15.3203 85.4531 15.3672L84.8281 15.8594ZM84.7422 21H81.3125L82.1953 19.4453H84.7422C85.1849 19.4453 85.5547 19.3724 85.8516 19.2266C86.1484 19.0755 86.3698 18.8698 86.5156 18.6094C86.6667 18.3438 86.7422 18.0339 86.7422 17.6797C86.7422 17.3099 86.6771 16.9896 86.5469 16.7188C86.4167 16.4427 86.2109 16.2318 85.9297 16.0859C85.6484 15.9349 85.2812 15.8594 84.8281 15.8594H82.625L82.6406 14.4297H85.5078L85.9531 14.9688C86.5781 14.9896 87.0911 15.1276 87.4922 15.3828C87.8984 15.638 88.2005 15.9688 88.3984 16.375C88.5964 16.7812 88.6953 17.2188 88.6953 17.6875C88.6953 18.4115 88.5365 19.0182 88.2188 19.5078C87.9062 19.9974 87.4557 20.3698 86.8672 20.625C86.2786 20.875 85.5703 21 84.7422 21ZM99.7422 15V15.625C99.7422 16.4844 99.6302 17.2552 99.4062 17.9375C99.1823 18.6198 98.862 19.2005 98.4453 19.6797C98.0339 20.1589 97.5391 20.526 96.9609 20.7812C96.3828 21.0312 95.7422 21.1562 95.0391 21.1562C94.3411 21.1562 93.7031 21.0312 93.125 20.7812C92.5521 20.526 92.0547 20.1589 91.6328 19.6797C91.2109 19.2005 90.8828 18.6198 90.6484 17.9375C90.4193 17.2552 90.3047 16.4844 90.3047 15.625V15C90.3047 14.1406 90.4193 13.3724 90.6484 12.6953C90.8776 12.013 91.2005 11.4323 91.6172 10.9531C92.0391 10.4688 92.5365 10.1016 93.1094 9.85156C93.6875 9.59635 94.3255 9.46875 95.0234 9.46875C95.7266 9.46875 96.3672 9.59635 96.9453 9.85156C97.5234 10.1016 98.0208 10.4688 98.4375 10.9531C98.8542 11.4323 99.1745 12.013 99.3984 12.6953C99.6276 13.3724 99.7422 14.1406 99.7422 15ZM97.7812 15.625V14.9844C97.7812 14.349 97.7188 13.7891 97.5938 13.3047C97.474 12.8151 97.2943 12.4062 97.0547 12.0781C96.8203 11.7448 96.5312 11.4948 96.1875 11.3281C95.8438 11.1562 95.4557 11.0703 95.0234 11.0703C94.5911 11.0703 94.2057 11.1562 93.8672 11.3281C93.5286 11.4948 93.2396 11.7448 93 12.0781C92.7656 12.4062 92.5859 12.8151 92.4609 13.3047C92.3359 13.7891 92.2734 14.349 92.2734 14.9844V15.625C92.2734 16.2604 92.3359 16.8229 92.4609 17.3125C92.5859 17.8021 92.7682 18.2161 93.0078 18.5547C93.2526 18.888 93.5443 19.1406 93.8828 19.3125C94.2214 19.4792 94.6068 19.5625 95.0391 19.5625C95.4766 19.5625 95.8646 19.4792 96.2031 19.3125C96.5417 19.1406 96.8281 18.888 97.0625 18.5547C97.2969 18.2161 97.474 17.8021 97.5938 17.3125C97.7188 16.8229 97.7812 16.2604 97.7812 15.625ZM110.773 15V15.625C110.773 16.4844 110.661 17.2552 110.438 17.9375C110.214 18.6198 109.893 19.2005 109.477 19.6797C109.065 20.1589 108.57 20.526 107.992 20.7812C107.414 21.0312 106.773 21.1562 106.07 21.1562C105.372 21.1562 104.734 21.0312 104.156 20.7812C103.583 20.526 103.086 20.1589 102.664 19.6797C102.242 19.2005 101.914 18.6198 101.68 17.9375C101.451 17.2552 101.336 16.4844 101.336 15.625V15C101.336 14.1406 101.451 13.3724 101.68 12.6953C101.909 12.013 102.232 11.4323 102.648 10.9531C103.07 10.4688 103.568 10.1016 104.141 9.85156C104.719 9.59635 105.357 9.46875 106.055 9.46875C106.758 9.46875 107.398 9.59635 107.977 9.85156C108.555 10.1016 109.052 10.4688 109.469 10.9531C109.885 11.4323 110.206 12.013 110.43 12.6953C110.659 13.3724 110.773 14.1406 110.773 15ZM108.812 15.625V14.9844C108.812 14.349 108.75 13.7891 108.625 13.3047C108.505 12.8151 108.326 12.4062 108.086 12.0781C107.852 11.7448 107.562 11.4948 107.219 11.3281C106.875 11.1562 106.487 11.0703 106.055 11.0703C105.622 11.0703 105.237 11.1562 104.898 11.3281C104.56 11.4948 104.271 11.7448 104.031 12.0781C103.797 12.4062 103.617 12.8151 103.492 13.3047C103.367 13.7891 103.305 14.349 103.305 14.9844V15.625C103.305 16.2604 103.367 16.8229 103.492 17.3125C103.617 17.8021 103.799 18.2161 104.039 18.5547C104.284 18.888 104.576 19.1406 104.914 19.3125C105.253 19.4792 105.638 19.5625 106.07 19.5625C106.508 19.5625 106.896 19.4792 107.234 19.3125C107.573 19.1406 107.859 18.888 108.094 18.5547C108.328 18.2161 108.505 17.8021 108.625 17.3125C108.75 16.8229 108.812 16.2604 108.812 15.625ZM114.695 9.625V21H112.734V9.625H114.695ZM121.531 9.625L116.922 15.1016L114.297 17.8828L113.953 15.9375L115.828 13.625L119.141 9.625H121.531ZM119.422 21L115.68 15.6094L117.031 14.2734L121.75 21H119.422Z" fill="#AEC5CE"/>
</svg>
