<svg width="129" height="32" viewBox="0 0 129 32" fill="none" xmlns="http://www.w3.org/2000/svg">
<path d="M23.1219 10.8771C22.5823 11.1961 21.9859 11.4286 21.3505 11.5542C20.8415 11.0127 20.1157 10.6733 19.3152 10.6733C17.7748 10.6733 16.5266 11.9216 16.5266 13.462C16.5266 13.6803 16.5507 13.8936 16.5982 14.0966C14.281 13.9813 12.2262 12.871 10.8501 11.1835C10.6095 11.5956 10.4724 12.0751 10.4724 12.5861C10.4724 13.5528 10.9646 14.4069 11.7137 14.9071C11.2561 14.8929 10.8267 14.7669 10.4506 14.5578C10.4498 14.5693 10.4498 14.5819 10.4498 14.5938C10.4498 15.9442 11.4104 17.0722 12.6877 17.3277C12.4526 17.392 12.2071 17.4265 11.9524 17.4265C11.7731 17.4265 11.5985 17.4085 11.4284 17.3763C11.7835 18.4836 12.8122 19.2902 14.0328 19.3124C13.0788 20.0608 11.8765 20.5066 10.5689 20.5066C10.3441 20.5066 10.1224 20.4939 9.90405 20.4671C11.1381 21.258 12.6046 21.7203 14.1795 21.7203C19.3095 21.7203 22.1142 17.4705 22.1142 13.7856C22.1142 13.665 22.1112 13.5443 22.1062 13.4245C22.6508 13.0315 23.1234 12.5405 23.4973 11.9813C22.9971 12.2027 22.4597 12.352 21.8955 12.4195C22.4712 12.0751 22.9136 11.5274 23.1219 10.8771Z" fill="#AEC5CE"/>
<path d="M16.4003 0C7.57778 0 0.399902 7.17712 0.399902 15.9996C0.399902 24.8221 7.57778 32 16.4003 32C25.2228 32 32.4007 24.8221 32.4007 15.9996C32.4007 7.17712 25.2228 0 16.4003 0ZM16.4003 29.8016C8.78999 29.8016 2.59835 23.6099 2.59835 15.9996C2.59835 8.38932 8.78999 2.19806 16.4003 2.19806C24.0106 2.19806 30.2022 8.38932 30.2022 15.9996C30.2022 23.6099 24.0106 29.8016 16.4003 29.8016Z" fill="#AEC5CE"/>
<path d="M48.2366 9.625V21H46.2913V9.625H48.2366ZM51.8069 9.625V11.1875H42.7522V9.625H51.8069ZM56.2834 18.4453L58.5491 9.625H59.7366L59.6038 11.8984L57.1819 21H55.9475L56.2834 18.4453ZM54.5881 9.625L56.4241 18.375L56.5881 21H55.2756L52.6428 9.625H54.5881ZM62.3069 18.3516L64.1194 9.625H66.0725L63.4397 21H62.1272L62.3069 18.3516ZM60.1975 9.625L62.4397 18.4688L62.7678 21H61.5334L59.1506 11.8984L59.0256 9.625H60.1975ZM69.6194 9.625V21H67.6584V9.625H69.6194ZM76.5022 9.625V21H74.5569V9.625H76.5022ZM80.0725 9.625V11.1875H71.0178V9.625H80.0725ZM86.3772 9.625V21H84.4319V9.625H86.3772ZM89.9475 9.625V11.1875H80.8928V9.625H89.9475ZM98.8928 19.4453V21H92.8538V19.4453H98.8928ZM93.4084 9.625V21H91.4475V9.625H93.4084ZM98.1038 14.375V15.9062H92.8538V14.375H98.1038ZM98.8538 9.625V11.1875H92.8538V9.625H98.8538ZM100.494 9.625H104.518C105.382 9.625 106.119 9.75521 106.729 10.0156C107.338 10.276 107.804 10.6615 108.127 11.1719C108.455 11.6771 108.619 12.3021 108.619 13.0469C108.619 13.6146 108.515 14.1146 108.307 14.5469C108.099 14.9792 107.804 15.3438 107.424 15.6406C107.044 15.9323 106.591 16.1589 106.065 16.3203L105.471 16.6094H101.854L101.838 15.0547H104.549C105.018 15.0547 105.408 14.9714 105.721 14.8047C106.033 14.638 106.268 14.4115 106.424 14.125C106.586 13.8333 106.666 13.5052 106.666 13.1406C106.666 12.7448 106.588 12.401 106.432 12.1094C106.281 11.8125 106.046 11.5859 105.729 11.4297C105.411 11.2682 105.007 11.1875 104.518 11.1875H102.455V21H100.494V9.625ZM106.987 21L104.315 15.8906L106.369 15.8828L109.08 20.8984V21H106.987Z" fill="#AEC5CE"/>
</svg>
