<svg width="22" height="23" viewBox="0 0 22 23" fill="none" xmlns="http://www.w3.org/2000/svg">
<g filter="url(#filter0_d_25_1538)">
<path d="M15.9401 8.66683C15.7934 8.66683 15.6401 8.62016 15.4934 8.58683C15.1967 8.52047 14.9049 8.43359 14.6201 8.32683C14.3108 8.21432 13.9709 8.22016 13.6657 8.34323C13.3604 8.46631 13.1115 8.69792 12.9668 8.9935L12.8201 9.30016C12.1727 8.93297 11.5745 8.48493 11.0401 7.96683C10.522 7.43241 10.074 6.83428 9.70678 6.18683L10.0134 6.04683C10.309 5.90211 10.5406 5.65318 10.6637 5.34796C10.7868 5.04273 10.7926 4.70277 10.6801 4.3935C10.5742 4.10618 10.4874 3.81221 10.4201 3.5135C10.3868 3.36683 10.3601 3.2135 10.3401 3.06683C10.2592 2.59724 10.0132 2.17199 9.64653 1.86766C9.27986 1.56332 8.81658 1.3999 8.34012 1.40683H6.33345C6.05161 1.40646 5.77288 1.46566 5.51553 1.58055C5.25817 1.69544 5.028 1.86343 4.84011 2.0735C4.64833 2.28927 4.50552 2.544 4.42152 2.82019C4.33751 3.09638 4.31429 3.38748 4.35345 3.6735C4.71584 6.44826 5.98359 9.02593 7.96011 11.0068C9.94101 12.9834 12.5187 14.2511 15.2934 14.6135C15.38 14.6201 15.4669 14.6201 15.5534 14.6135C16.0451 14.6142 16.5197 14.4338 16.8868 14.1068C17.0968 13.9189 17.2648 13.6888 17.3797 13.4314C17.4946 13.1741 17.5538 12.8953 17.5534 12.6135V10.6135C17.5499 10.1529 17.3874 9.70757 17.0934 9.35289C16.7995 8.99821 16.3921 8.75588 15.9401 8.66683ZM16.2668 12.6668C16.2666 12.7599 16.2469 12.8518 16.209 12.9368C16.1711 13.0217 16.1158 13.0978 16.0468 13.1602C15.9737 13.2267 15.8868 13.2762 15.7922 13.305C15.6977 13.3339 15.5979 13.3413 15.5001 13.3268C13.0123 13.0019 10.7003 11.8682 8.92011 10.1002C7.13843 8.31847 5.9948 5.99841 5.66678 3.50016C5.6523 3.40239 5.65974 3.30261 5.68856 3.20806C5.71739 3.11352 5.76688 3.02656 5.83345 2.9535C5.89653 2.8836 5.9737 2.82785 6.05988 2.78993C6.14606 2.75201 6.2393 2.73278 6.33345 2.7335H8.33345C8.48756 2.72973 8.63821 2.77949 8.75976 2.8743C8.88131 2.96911 8.96625 3.10311 9.00011 3.2535C9.00011 3.4335 9.06011 3.62016 9.10011 3.80016C9.17717 4.14941 9.27966 4.49254 9.40678 4.82683L8.47345 5.26683C8.31302 5.34047 8.18835 5.47473 8.12678 5.64016C8.0601 5.80247 8.0601 5.98452 8.12678 6.14683C9.08625 8.202 10.7383 9.85403 12.7934 10.8135C12.9558 10.8802 13.1378 10.8802 13.3001 10.8135C13.4655 10.7519 13.5998 10.6273 13.6734 10.4668L14.0934 9.5335C14.4374 9.65891 14.7893 9.76136 15.1468 9.84016C15.3201 9.88016 15.5068 9.9135 15.6868 9.94016C15.8372 9.97403 15.9712 10.059 16.066 10.1805C16.1608 10.3021 16.2105 10.4527 16.2068 10.6068L16.2668 12.6668ZM12.3334 1.3335C12.1801 1.3335 12.0201 1.3335 11.8668 1.3335C11.69 1.34853 11.5264 1.43318 11.412 1.56883C11.2976 1.70448 11.2418 1.88002 11.2568 2.05683C11.2718 2.23364 11.3565 2.39724 11.4921 2.51164C11.6278 2.62603 11.8033 2.68186 11.9801 2.66683H12.3334C13.3943 2.66683 14.4117 3.08826 15.1619 3.8384C15.912 4.58855 16.3334 5.60596 16.3334 6.66683C16.3334 6.78683 16.3334 6.90016 16.3334 7.02016C16.3187 7.19604 16.3742 7.37059 16.488 7.50556C16.6017 7.64053 16.7643 7.7249 16.9401 7.74016H16.9934C17.1603 7.74084 17.3214 7.6789 17.4448 7.56657C17.5683 7.45425 17.6451 7.29971 17.6601 7.1335C17.6601 6.98016 17.6601 6.82016 17.6601 6.66683C17.6601 5.2535 17.0991 3.89795 16.1004 2.89795C15.1016 1.89795 13.7468 1.33526 12.3334 1.3335ZM13.6668 6.66683C13.6668 6.84364 13.737 7.01321 13.862 7.13823C13.9871 7.26326 14.1566 7.3335 14.3334 7.3335C14.5103 7.3335 14.6798 7.26326 14.8049 7.13823C14.9299 7.01321 15.0001 6.84364 15.0001 6.66683C15.0001 5.95959 14.7192 5.28131 14.2191 4.78121C13.719 4.28111 13.0407 4.00016 12.3334 4.00016C12.1566 4.00016 11.9871 4.0704 11.862 4.19543C11.737 4.32045 11.6668 4.49002 11.6668 4.66683C11.6668 4.84364 11.737 5.01321 11.862 5.13823C11.9871 5.26326 12.1566 5.3335 12.3334 5.3335C12.6871 5.3335 13.0262 5.47397 13.2763 5.72402C13.5263 5.97407 13.6668 6.31321 13.6668 6.66683Z" fill="white"/>
</g>
<defs>
<filter id="filter0_d_25_1538" x="-1" y="0" width="24" height="24" filterUnits="userSpaceOnUse" color-interpolation-filters="sRGB">
<feFlood flood-opacity="0" result="BackgroundImageFix"/>
<feColorMatrix in="SourceAlpha" type="matrix" values="0 0 0 0 0 0 0 0 0 0 0 0 0 0 0 0 0 0 127 0" result="hardAlpha"/>
<feOffset dy="4"/>
<feGaussianBlur stdDeviation="2"/>
<feComposite in2="hardAlpha" operator="out"/>
<feColorMatrix type="matrix" values="0 0 0 0 0 0 0 0 0 0 0 0 0 0 0 0 0 0 0.25 0"/>
<feBlend mode="normal" in2="BackgroundImageFix" result="effect1_dropShadow_25_1538"/>
<feBlend mode="normal" in="SourceGraphic" in2="effect1_dropShadow_25_1538" result="shape"/>
</filter>
</defs>
</svg>
