<svg width="141" height="32" viewBox="0 0 141 32" fill="none" xmlns="http://www.w3.org/2000/svg">
<path d="M16.7997 0C7.97732 0 0.800293 7.17741 0.800293 15.9994C0.800293 24.8218 7.97732 32 16.7997 32C25.6221 32 32.8003 24.8218 32.8003 15.9994C32.8003 7.17741 25.6221 0 16.7997 0ZM16.7997 29.8016C9.18952 29.8016 2.99871 23.61 2.99871 15.9994C2.99871 8.38922 9.18952 2.19842 16.7997 2.19842C24.4103 2.19842 30.6019 8.38922 30.6019 15.9994C30.6019 23.61 24.4103 29.8016 16.7997 29.8016Z" fill="#AEC5CE"/>
<path d="M13.4848 13.6455H10.8999V21.9608H13.4848V13.6455Z" fill="#AEC5CE"/>
<path d="M12.2091 10.0396C11.3745 10.0396 10.8318 10.601 10.8318 11.3318C10.8318 12.0465 11.3588 12.6244 12.1753 12.6244C13.0421 12.6244 13.5695 12.0465 13.5695 11.3318C13.5522 10.6006 13.0421 10.0396 12.2091 10.0396Z" fill="#AEC5CE"/>
<path d="M19.7912 13.4575C18.3986 13.4575 17.5652 14.2568 17.2243 14.7999H17.1726L17.0535 13.6452H14.8103C14.8432 14.3924 14.8777 15.2607 14.8777 16.2978V21.9605H17.4626V17.165C17.4626 16.9271 17.479 16.6889 17.548 16.5185C17.7345 16.0428 18.1596 15.5495 18.8739 15.5495C19.8092 15.5495 20.1842 16.281 20.1842 17.3526V21.9605H22.7687V17.0466C22.7683 14.5973 21.4936 13.4575 19.7912 13.4575Z" fill="#AEC5CE"/>
<path d="M51.0815 19.4453V21H45.3706V19.4453H51.0815ZM45.9175 9.625V21H43.9565V9.625H45.9175ZM54.6909 9.625V21H52.73V9.625H54.6909ZM66.1519 9.625V21H64.1909L59.0894 12.8516V21H57.1284V9.625H59.0894L64.2065 17.7891V9.625H66.1519ZM70.4487 9.625V21H68.4878V9.625H70.4487ZM77.2847 9.625L72.6753 15.1016L70.0503 17.8828L69.7065 15.9375L71.5815 13.625L74.894 9.625H77.2847ZM75.1753 21L71.4331 15.6094L72.7847 14.2734L77.5034 21H75.1753ZM86.0425 19.4453V21H80.0034V19.4453H86.0425ZM80.5581 9.625V21H78.5972V9.625H80.5581ZM85.2534 14.375V15.9062H80.0034V14.375H85.2534ZM86.0034 9.625V11.1875H80.0034V9.625H86.0034ZM90.9487 21H88.519L88.5347 19.4453H90.9487C91.6519 19.4453 92.2404 19.2917 92.7144 18.9844C93.1935 18.6771 93.5529 18.237 93.7925 17.6641C94.0373 17.0911 94.1597 16.4089 94.1597 15.6172V15C94.1597 14.3854 94.0894 13.8411 93.9487 13.3672C93.8133 12.8932 93.6102 12.4948 93.3394 12.1719C93.0737 11.849 92.7456 11.6042 92.355 11.4375C91.9696 11.2708 91.5243 11.1875 91.019 11.1875H88.4722V9.625H91.019C91.7743 9.625 92.4644 9.7526 93.0894 10.0078C93.7144 10.2578 94.2534 10.6198 94.7065 11.0938C95.1649 11.5677 95.5164 12.1354 95.7612 12.7969C96.006 13.4583 96.1284 14.1979 96.1284 15.0156V15.6172C96.1284 16.4349 96.006 17.1745 95.7612 17.8359C95.5164 18.4974 95.1649 19.0651 94.7065 19.5391C94.2482 20.0078 93.7013 20.3698 93.0659 20.625C92.4357 20.875 91.73 21 90.9487 21ZM89.605 9.625V21H87.644V9.625H89.605ZM100.191 9.625V21H98.23V9.625H100.191ZM111.652 9.625V21H109.691L104.589 12.8516V21H102.628V9.625H104.589L109.707 17.7891V9.625H111.652Z" fill="#AEC5CE"/>
</svg>
