<svg width="68" height="68" viewBox="0 0 68 68" fill="none" xmlns="http://www.w3.org/2000/svg">
<rect x="1" y="1" width="66" height="66" rx="33" fill="#FEFEFE" stroke="#AEC5CE" stroke-width="2" stroke-dasharray="2 2"/>
<path d="M34.0002 20.6665C31.1712 20.6665 28.4581 21.7903 26.4577 23.7907C24.4573 25.7911 23.3335 28.5042 23.3335 31.3332C23.3335 38.5332 32.7335 46.6665 33.1335 47.0132C33.375 47.2197 33.6824 47.3333 34.0002 47.3333C34.318 47.3333 34.6253 47.2197 34.8668 47.0132C35.3335 46.6665 44.6668 38.5332 44.6668 31.3332C44.6668 28.5042 43.543 25.7911 41.5426 23.7907C39.5422 21.7903 36.8291 20.6665 34.0002 20.6665ZM34.0002 44.1998C31.1602 41.5332 26.0002 35.7865 26.0002 31.3332C26.0002 29.2114 26.843 27.1766 28.3433 25.6763C29.8436 24.176 31.8784 23.3332 34.0002 23.3332C36.1219 23.3332 38.1567 24.176 39.657 25.6763C41.1573 27.1766 42.0002 29.2114 42.0002 31.3332C42.0002 35.7865 36.8402 41.5465 34.0002 44.1998ZM34.0002 25.9998C32.9453 25.9998 31.9142 26.3126 31.0371 26.8987C30.1601 27.4847 29.4765 28.3177 29.0728 29.2922C28.6691 30.2667 28.5635 31.3391 28.7693 32.3737C28.9751 33.4082 29.483 34.3585 30.2289 35.1044C30.9748 35.8503 31.9251 36.3582 32.9597 36.564C33.9942 36.7698 35.0666 36.6642 36.0411 36.2605C37.0157 35.8569 37.8486 35.1733 38.4347 34.2962C39.0207 33.4191 39.3335 32.388 39.3335 31.3332C39.3335 29.9187 38.7716 28.5621 37.7714 27.5619C36.7712 26.5617 35.4146 25.9998 34.0002 25.9998ZM34.0002 33.9998C33.4727 33.9998 32.9572 33.8434 32.5186 33.5504C32.0801 33.2574 31.7383 32.8409 31.5365 32.3537C31.3347 31.8664 31.2818 31.3302 31.3847 30.8129C31.4876 30.2956 31.7416 29.8205 32.1145 29.4476C32.4875 29.0746 32.9626 28.8206 33.4799 28.7177C33.9972 28.6148 34.5334 28.6677 35.0207 28.8695C35.5079 29.0713 35.9244 29.4131 36.2174 29.8517C36.5104 30.2902 36.6668 30.8058 36.6668 31.3332C36.6668 32.0404 36.3859 32.7187 35.8858 33.2188C35.3857 33.7189 34.7074 33.9998 34.0002 33.9998Z" fill="#AEC5CE"/>
</svg>
