<svg width="538" height="186" viewBox="0 0 538 186" fill="none" xmlns="http://www.w3.org/2000/svg">
<g filter="url(#filter0_d_248_186)">
<path d="M124.559 166.764L118.138 148.983L117.691 147.43V145.75L118.138 143.082L118.938 141.298L120.331 140.287L122.321 139.16L124.559 138.579L128.733 138.113H132.857L141.313 138.579L149.142 139.666L158.652 141.654L167.557 143.791L171.475 144.946L175.749 146.284L180.735 148.421L184.831 151.257L198.544 163.592L193.914 156.791L190.886 151.805L187.974 146.284L187.035 143.257V140.287L188.393 132.927L188.571 129.365L188.393 127.406L187.974 125.69L186.612 122.598L184.686 119.478L179.989 115.286L176.283 113.159L172.721 111.556L168.803 109.954L165.113 109.074L157.049 107.104L149.142 105.813L140.665 104.255L132.387 103.483L123.39 102.863H115.164H103.733L92.6156 103.483L81.0286 105.192L69.4413 107.987L66.9359 101.931L61.4557 99.4462H55.349L50.729 102.83L49.3042 105.679L45.7973 110.488L47.5233 113.693L48.4594 116.528L50.3728 117.255L51.2632 117.611L52.2175 117.615L51.6194 117.79L51.0851 118.146L50.1947 118.858L48.4594 120.41L46.6329 122.064L45.3862 123.845L44.852 124.557L44.4958 125.269L44.1396 125.982L43.9184 126.777L43.6053 127.585L43.4272 128.297V129.187L43.6053 130.193L44.4958 132.037L45.0301 132.927L45.7973 133.765L46.6329 134.53L47.5233 135.242L48.5919 135.955L49.5553 136.405L51.7975 137.736L54.2908 138.804L56.7841 139.873L59.4554 140.585L64.7981 142.188L70.2242 143.703L76.1959 145.037L82.1246 145.877L93.6488 146.996L98.8135 147.174H101.485L104.203 147.43L106.649 148.065L109.321 149.312L111.814 150.558L114.224 152.71L124.559 166.764Z" fill="#AEC5CE" stroke="#AEC5CE"/>
<path d="M62.5275 117.65C68.8376 113.688 71.4677 106.518 68.402 101.635C65.3363 96.7516 57.7357 96.0042 51.4255 99.9657C45.1154 103.927 42.4853 111.097 45.551 115.981C48.6167 120.864 56.2173 121.611 62.5275 117.65Z" fill="#AEC5CE"/>
<path d="M172.659 59.9633C177.4 59.5931 180.788 53.451 180.226 46.2447C179.663 39.0384 175.363 33.4966 170.621 33.8669C165.88 34.2371 162.492 40.3791 163.054 47.5854C163.617 54.7918 167.917 60.3335 172.659 59.9633Z" fill="#7F2941"/>
<path d="M118.938 24.5274C137.298 41.9144 147.076 54.0905 165.953 69.0501C180.409 80.5052 192.984 45.1788 200.002 21.4418C200.846 18.5072 201.622 15.8031 202.304 13.4199C203.341 9.7145 204.173 6.646 204.777 4.58121C206.034 0.286732 204.796 4.70944 202.304 13.4199C201.623 15.854 200.853 18.5624 200.002 21.4418C193.44 44.2527 182.741 80.9761 179.845 88.9962C175.579 100.807 195.188 154.323 198.309 162.692C198.578 163.406 198.722 163.794 198.722 163.794C198.722 163.794 198.576 163.409 198.309 162.692C195.15 154.299 174.851 100.834 170.584 101.819C166.823 102.686 139.098 145.14 128.815 161.057C127.523 163.192 126.245 165.183 124.993 167C124.993 167 126.438 164.738 128.815 161.057C142.32 138.747 157.329 100.853 160.255 84.7221C163.46 67.048 137.649 47.9164 118.938 24.5274Z" fill="#7F2941"/>
<path d="M118.938 24.5273C137.298 41.9143 147.076 54.0904 165.953 69.05C184.831 84.0096 200.503 19.1846 204.777 4.58112C209.051 -10.0223 184.475 76.1736 179.845 88.9961C175.214 101.819 198.722 163.794 198.722 163.794C198.722 163.794 175.214 100.75 170.584 101.819C165.953 102.887 124.993 167 124.993 167C139.338 146.197 157.049 102.396 160.255 84.722C163.46 67.0479 137.649 47.9163 118.938 24.5273Z" stroke="#7F2941"/>
<path d="M232.926 78.3691C232.038 78.3691 231.267 78.2319 230.614 77.9577C229.961 77.6834 229.426 77.3112 229.008 76.841C228.59 76.3577 228.276 75.7896 228.067 75.1367C227.871 74.4838 227.773 73.7786 227.773 73.021V64.4994H229.674V72.8055C229.674 74.1636 229.974 75.1499 230.575 75.7636C231.176 76.3773 231.959 76.6843 232.926 76.6843C233.409 76.6843 233.846 76.6124 234.238 76.4688C234.643 76.3121 234.989 76.077 235.276 75.7636C235.564 75.4502 235.786 75.0519 235.942 74.5686C236.099 74.0724 236.178 73.4847 236.178 72.8055V64.4994H238.078V73.021C238.078 73.7786 237.973 74.4838 237.764 75.1367C237.568 75.7896 237.255 76.3577 236.824 76.841C236.406 77.3112 235.871 77.6834 235.218 77.9577C234.578 78.2319 233.814 78.3691 232.926 78.3691ZM249.672 66.0078C249.372 66.3472 249.019 66.7586 248.614 67.2419C248.223 67.7121 247.805 68.241 247.361 68.8287C246.917 69.4033 246.459 70.0173 245.989 70.6702C245.519 71.3103 245.056 71.9631 244.598 72.6292C244.155 73.2821 243.73 73.9353 243.325 74.5882C242.92 75.2411 242.555 75.8615 242.228 76.4492H249.868V78.0752H240.014V76.8019C240.289 76.2793 240.609 75.7048 240.974 75.0779C241.353 74.4511 241.751 73.811 242.169 73.1581C242.6 72.5052 243.044 71.8456 243.501 71.1795C243.959 70.5135 244.409 69.8734 244.853 69.2597C245.31 68.646 245.748 68.0711 246.166 67.5358C246.597 67.0005 246.988 66.5303 247.341 66.1253H240.367V64.4994H249.672V66.0078ZM255.946 78.1927C255.672 78.1927 255.371 78.1863 255.045 78.1732C254.731 78.16 254.411 78.1404 254.085 78.1144C253.771 78.0884 253.458 78.0556 253.145 78.0164C252.831 77.9773 252.544 77.9249 252.283 77.8597V64.6953C252.544 64.6301 252.831 64.5777 253.145 64.5385C253.458 64.4993 253.771 64.4666 254.085 64.4406C254.411 64.4146 254.731 64.395 255.045 64.3818C255.358 64.3686 255.652 64.3622 255.926 64.3622C256.71 64.3622 257.441 64.421 258.12 64.5385C258.813 64.6561 259.407 64.8584 259.903 65.1458C260.412 65.4201 260.811 65.7859 261.098 66.2429C261.385 66.6998 261.529 67.2615 261.529 67.9276C261.529 68.672 261.353 69.2857 261 69.7691C260.648 70.2392 260.177 70.5918 259.59 70.8269C260.386 71.062 261.02 71.4342 261.49 71.9435C261.96 72.4529 262.195 73.1713 262.195 74.0984C262.195 75.4566 261.692 76.482 260.687 77.1741C259.694 77.8533 258.114 78.1927 255.946 78.1927ZM254.163 71.7476V76.5276C254.307 76.5408 254.477 76.5536 254.673 76.5668C254.842 76.58 255.038 76.5928 255.26 76.606C255.495 76.606 255.763 76.606 256.064 76.606C256.625 76.606 257.154 76.5732 257.65 76.508C258.16 76.4297 258.603 76.2989 258.982 76.1162C259.361 75.9335 259.661 75.6788 259.884 75.3522C260.119 75.0256 260.236 74.6142 260.236 74.118C260.236 73.6739 260.151 73.3017 259.981 73.0014C259.812 72.688 259.563 72.4397 259.237 72.257C258.924 72.0743 258.545 71.9435 258.101 71.8652C257.657 71.7868 257.161 71.7476 256.612 71.7476H254.163ZM254.163 70.2196H256.161C256.632 70.2196 257.075 70.1869 257.494 70.1217C257.911 70.0565 258.27 69.939 258.571 69.7691C258.884 69.5992 259.126 69.3773 259.296 69.103C259.479 68.8287 259.57 68.4825 259.57 68.0647C259.57 67.6729 259.479 67.3463 259.296 67.0852C259.113 66.811 258.858 66.5955 258.532 66.4388C258.218 66.2689 257.846 66.1449 257.415 66.0666C256.984 65.9882 256.527 65.949 256.044 65.949C255.561 65.949 255.182 65.9554 254.908 65.9686C254.633 65.9818 254.385 66.0014 254.163 66.0274V70.2196ZM264.87 78.0752V64.4994H273.157V66.1253H266.771V70.1609H272.452V71.7476H266.771V76.4492H273.647V78.0752H264.87ZM286.112 64.4994C285.707 64.9435 285.25 65.4397 284.74 65.9882C284.231 66.5235 283.696 67.0788 283.134 67.6533C282.585 68.215 282.037 68.77 281.488 69.3185C280.94 69.867 280.424 70.3763 279.941 70.8465C280.503 71.2383 281.097 71.7216 281.724 72.2962C282.35 72.8707 282.964 73.4847 283.565 74.1376C284.166 74.7905 284.728 75.4566 285.25 76.1358C285.785 76.815 286.229 77.4615 286.582 78.0752H284.349C283.957 77.4615 283.506 76.8474 282.997 76.2337C282.488 75.6069 281.946 75.0128 281.371 74.4511C280.81 73.8765 280.235 73.3476 279.647 72.8643C279.072 72.3809 278.511 71.9695 277.962 71.6301V78.0752H276.062V64.4994H277.962V70.4939C278.42 70.0629 278.922 69.5796 279.471 69.0442C280.019 68.4957 280.561 67.9472 281.097 67.3987C281.632 66.8501 282.135 66.3276 282.605 65.8315C283.088 65.3221 283.493 64.878 283.82 64.4994H286.112ZM288.382 64.4994H290.283V78.0752H288.382V64.4994ZM296.798 76.7235C298.783 76.7235 299.775 76.0443 299.775 74.6861C299.775 74.2683 299.684 73.9157 299.501 73.6283C299.331 73.328 299.096 73.0734 298.796 72.8643C298.495 72.6424 298.149 72.4529 297.757 72.2962C297.378 72.1394 296.974 71.9827 296.543 71.826C296.046 71.6561 295.576 71.467 295.132 71.2579C294.688 71.036 294.303 70.7813 293.977 70.4939C293.65 70.1936 293.389 69.841 293.193 69.436C293.01 69.031 292.919 68.5413 292.919 67.9668C292.919 66.7782 293.323 65.8511 294.133 65.185C294.943 64.5189 296.059 64.1859 297.483 64.1859C298.306 64.1859 299.05 64.2774 299.716 64.4602C300.395 64.6301 300.892 64.8192 301.205 65.0283L300.598 66.5759C300.324 66.406 299.912 66.2429 299.364 66.0861C298.828 65.9162 298.201 65.8315 297.483 65.8315C297.117 65.8315 296.778 65.8706 296.464 65.949C296.151 66.0274 295.877 66.1449 295.642 66.3016C295.407 66.4584 295.217 66.6607 295.074 66.9089C294.943 67.144 294.878 67.4247 294.878 67.7513C294.878 68.1171 294.949 68.4238 295.093 68.672C295.237 68.9203 295.439 69.1422 295.7 69.3381C295.962 69.5208 296.262 69.6907 296.602 69.8474C296.954 70.0041 297.339 70.1609 297.757 70.3176C298.345 70.5527 298.88 70.7877 299.364 71.0228C299.86 71.2579 300.285 71.5386 300.637 71.8652C301.003 72.1918 301.284 72.5836 301.479 73.0406C301.675 73.4847 301.773 74.0265 301.773 74.6666C301.773 75.8551 301.336 76.7691 300.461 77.4092C299.599 78.0492 298.378 78.3691 296.798 78.3691C296.262 78.3691 295.766 78.3299 295.309 78.2515C294.865 78.1863 294.466 78.108 294.114 78.0164C293.761 77.9121 293.454 77.8074 293.193 77.703C292.945 77.5855 292.749 77.4875 292.605 77.4092L293.173 75.842C293.474 76.0119 293.931 76.201 294.545 76.4101C295.158 76.6191 295.909 76.7235 296.798 76.7235ZM313.14 64.4994V66.1449H308.869V78.0752H306.969V66.1449H302.698V64.4994H313.14ZM322.954 78.0752C322.732 77.4875 322.523 76.913 322.327 76.3513C322.131 75.7768 321.929 75.1955 321.72 74.6078H315.569L314.334 78.0752H312.356C312.878 76.6387 313.368 75.313 313.825 74.0984C314.282 72.8707 314.726 71.7085 315.157 70.6114C315.601 69.5144 316.039 68.4697 316.47 67.477C316.901 66.4715 317.351 65.4789 317.821 64.4994H319.565C320.035 65.4789 320.486 66.4715 320.917 67.477C321.348 68.4697 321.779 69.5144 322.21 70.6114C322.654 71.7085 323.104 72.8707 323.561 74.0984C324.018 75.313 324.508 76.6387 325.031 78.0752H322.954ZM321.171 73.0406C320.754 71.9044 320.335 70.8073 319.918 69.7495C319.513 68.6784 319.088 67.6533 318.644 66.6738C318.187 67.6533 317.75 68.6784 317.332 69.7495C316.927 70.8073 316.522 71.9044 316.117 73.0406H321.171ZM336.179 78.0752C335.892 77.5919 335.559 77.0501 335.18 76.4492C334.814 75.8484 334.416 75.2282 333.985 74.5882C333.554 73.9353 333.103 73.2757 332.633 72.6096C332.176 71.9435 331.719 71.3035 331.262 70.6898C330.805 70.0629 330.361 69.4752 329.93 68.9267C329.499 68.3782 329.1 67.8948 328.735 67.477V78.0752H326.874V64.4994H328.382C328.996 65.1522 329.649 65.9162 330.341 66.7914C331.046 67.6533 331.739 68.5481 332.418 69.4752C333.11 70.3895 333.756 71.2907 334.357 72.1786C334.971 73.0666 335.487 73.857 335.905 74.549V64.4994H337.766V78.0752H336.179ZM354.73 78.0752C354.508 77.4875 354.299 76.913 354.104 76.3513C353.908 75.7768 353.705 75.1955 353.496 74.6078H347.345L346.111 78.0752H344.132C344.654 76.6387 345.144 75.313 345.601 74.0984C346.058 72.8707 346.503 71.7085 346.934 70.6114C347.377 69.5144 347.815 68.4697 348.246 67.477C348.677 66.4715 349.128 65.4789 349.598 64.4994H351.341C351.812 65.4789 352.262 66.4715 352.693 67.477C353.124 68.4697 353.555 69.5144 353.986 70.6114C354.43 71.7085 354.88 72.8707 355.338 74.0984C355.795 75.313 356.284 76.6387 356.807 78.0752H354.73ZM352.948 73.0406C352.53 71.9044 352.112 70.8073 351.694 69.7495C351.289 68.6784 350.864 67.6533 350.421 66.6738C349.963 67.6533 349.526 68.6784 349.108 69.7495C348.703 70.8073 348.298 71.9044 347.894 73.0406H352.948ZM362.109 76.7235C364.097 76.7235 365.087 76.0443 365.087 74.6861C365.087 74.2683 364.998 73.9157 364.813 73.6283C364.645 73.328 364.41 73.0734 364.108 72.8643C363.808 72.6424 363.463 72.4529 363.071 72.2962C362.69 72.1394 362.288 71.9827 361.857 71.826C361.358 71.6561 360.888 71.467 360.446 71.2579C360.001 71.036 359.616 70.7813 359.288 70.4939C358.964 70.1936 358.701 69.841 358.505 69.436C358.323 69.031 358.231 68.5413 358.231 67.9668C358.231 66.7782 358.637 65.8511 359.445 65.185C360.257 64.5189 361.372 64.1859 362.797 64.1859C363.62 64.1859 364.364 64.2774 365.03 64.4602C365.707 64.6301 366.206 64.8192 366.519 65.0283L365.91 66.5759C365.636 66.406 365.226 66.2429 364.678 66.0861C364.14 65.9162 363.513 65.8315 362.797 65.8315C362.43 65.8315 362.092 65.8706 361.778 65.949C361.465 66.0274 361.19 66.1449 360.955 66.3016C360.72 66.4584 360.532 66.6607 360.386 66.9089C360.257 67.144 360.19 67.4247 360.19 67.7513C360.19 68.1171 360.261 68.4238 360.407 68.672C360.549 68.9203 360.752 69.1422 361.012 69.3381C361.276 69.5208 361.575 69.6907 361.914 69.8474C362.266 70.0041 362.651 70.1609 363.071 70.3176C363.659 70.5527 364.193 70.7877 364.678 71.0228C365.173 71.2579 365.596 71.5386 365.949 71.8652C366.316 72.1918 366.597 72.5836 366.793 73.0406C366.989 73.4847 367.085 74.0265 367.085 74.6666C367.085 75.8551 366.647 76.7691 365.775 77.4092C364.913 78.0492 363.691 78.3691 362.109 78.3691C361.575 78.3691 361.08 78.3299 360.621 78.2515C360.179 78.1863 359.78 78.108 359.427 78.0164C359.075 77.9121 358.768 77.8074 358.505 77.703C358.259 77.5855 358.063 77.4875 357.917 77.4092L358.487 75.842C358.786 76.0119 359.242 76.201 359.858 76.4101C360.471 76.6191 361.223 76.7235 362.109 76.7235ZM372.535 76.7235C374.522 76.7235 375.513 76.0443 375.513 74.6861C375.513 74.2683 375.423 73.9157 375.238 73.6283C375.071 73.328 374.836 73.0734 374.533 72.8643C374.234 72.6424 373.888 72.4529 373.497 72.2962C373.119 72.1394 372.713 71.9827 372.282 71.826C371.787 71.6561 371.317 71.467 370.871 71.2579C370.426 71.036 370.042 70.7813 369.714 70.4939C369.39 70.1936 369.126 69.841 368.93 69.436C368.749 69.031 368.656 68.5413 368.656 67.9668C368.656 66.7782 369.062 65.8511 369.871 65.185C370.683 64.5189 371.798 64.1859 373.222 64.1859C374.045 64.1859 374.79 64.2774 375.456 64.4602C376.136 64.6301 376.631 64.8192 376.944 65.0283L376.335 66.5759C376.061 66.406 375.651 66.2429 375.103 66.0861C374.569 65.9162 373.942 65.8315 373.222 65.8315C372.855 65.8315 372.517 65.8706 372.204 65.949C371.89 66.0274 371.616 66.1449 371.381 66.3016C371.146 66.4584 370.957 66.6607 370.811 66.9089C370.683 67.144 370.615 67.4247 370.615 67.7513C370.615 68.1171 370.69 68.4238 370.832 68.672C370.975 68.9203 371.178 69.1422 371.438 69.3381C371.701 69.5208 372.001 69.6907 372.339 69.8474C372.692 70.0041 373.08 70.1609 373.497 70.3176C374.084 70.5527 374.619 70.7877 375.103 71.0228C375.598 71.2579 376.022 71.5386 376.375 71.8652C376.741 72.1918 377.023 72.5836 377.219 73.0406C377.415 73.4847 377.511 74.0265 377.511 74.6666C377.511 75.8551 377.076 76.7691 376.2 77.4092C375.338 78.0492 374.116 78.3691 372.535 78.3691C372.001 78.3691 371.506 78.3299 371.046 78.2515C370.604 78.1863 370.205 78.108 369.853 78.0164C369.5 77.9121 369.194 77.8074 368.93 77.703C368.685 77.5855 368.489 77.4875 368.343 77.4092L368.912 75.842C369.212 76.0119 369.671 76.201 370.284 76.4101C370.896 76.6191 371.648 76.7235 372.535 76.7235ZM379.26 71.2775C379.26 70.1153 379.431 69.0898 379.769 68.2019C380.122 67.3139 380.592 66.5759 381.179 65.9882C381.781 65.3873 382.472 64.9367 383.256 64.6365C384.054 64.3362 384.894 64.1859 385.785 64.1859C386.658 64.1859 387.48 64.3362 388.253 64.6365C389.037 64.9367 389.721 65.3873 390.308 65.9882C390.896 66.5759 391.359 67.3139 391.701 68.2019C392.054 69.0898 392.228 70.1153 392.228 71.2775C392.228 72.4397 392.054 73.4651 391.701 74.3531C391.359 75.2411 390.896 75.9855 390.308 76.5864C389.721 77.1741 389.037 77.6182 388.253 77.9185C387.48 78.2188 386.658 78.3691 385.785 78.3691C384.894 78.3691 384.054 78.2188 383.256 77.9185C382.472 77.6182 381.781 77.1741 381.179 76.5864C380.592 75.9855 380.122 75.2411 379.769 74.3531C379.431 73.4651 379.26 72.4397 379.26 71.2775ZM381.258 71.2775C381.258 72.1003 381.365 72.8511 381.571 73.5303C381.781 74.1964 382.073 74.7645 382.455 75.2347C382.846 75.7048 383.317 76.0706 383.865 76.3317C384.424 76.58 385.051 76.7039 385.746 76.7039C386.437 76.7039 387.056 76.58 387.605 76.3317C388.153 76.0706 388.616 75.7048 388.998 75.2347C389.389 74.7645 389.689 74.1964 389.899 73.5303C390.105 72.8511 390.212 72.1003 390.212 71.2775C390.212 70.4547 390.105 69.7103 389.899 69.0442C389.689 68.365 389.389 67.7905 388.998 67.3203C388.616 66.8501 388.153 66.4911 387.605 66.2429C387.056 65.9818 386.437 65.8511 385.746 65.8511C385.051 65.8511 384.424 65.9818 383.865 66.2429C383.317 66.4911 382.846 66.8501 382.455 67.3203C382.073 67.7905 381.781 68.365 381.571 69.0442C381.365 69.7103 381.258 70.4547 381.258 71.2775ZM400.894 78.3691C399.939 78.3691 399.07 78.2123 398.287 77.8989C397.503 77.5855 396.834 77.1285 396.271 76.5276C395.708 75.9267 395.27 75.1891 394.957 74.3139C394.657 73.426 394.508 72.4137 394.508 71.2775C394.508 70.1413 394.679 69.1358 395.017 68.2606C395.37 67.3727 395.84 66.6282 396.428 66.0274C397.015 65.4265 397.699 64.9695 398.483 64.6561C399.266 64.3426 400.103 64.1859 400.99 64.1859C401.553 64.1859 402.055 64.2251 402.5 64.3034C402.956 64.3818 403.348 64.4734 403.676 64.5777C404.014 64.6821 404.288 64.7868 404.499 64.8911C404.709 64.9955 404.851 65.0739 404.93 65.1262L404.381 66.6934C404.264 66.6151 404.093 66.5303 403.872 66.4388C403.651 66.3472 403.394 66.256 403.106 66.1645C402.832 66.073 402.525 66.0014 402.187 65.949C401.859 65.8838 401.528 65.8511 401.186 65.8511C400.47 65.8511 399.822 65.975 399.248 66.2233C398.675 66.4715 398.184 66.8306 397.777 67.3007C397.375 67.7709 397.062 68.3454 396.837 69.0246C396.631 69.6907 396.524 70.4415 396.524 71.2775C396.524 72.0871 396.616 72.8251 396.798 73.4912C396.994 74.1572 397.282 74.7317 397.66 75.2151C398.041 75.6852 398.511 76.051 399.07 76.3121C399.647 76.5732 400.313 76.7039 401.069 76.7039C401.945 76.7039 402.671 76.6124 403.245 76.4297C403.818 76.2469 404.249 76.0834 404.538 75.9399L405.026 77.5071C404.937 77.5723 404.773 77.6574 404.538 77.7618C404.303 77.8533 404.007 77.9445 403.654 78.036C403.302 78.1276 402.892 78.2059 402.422 78.2711C401.952 78.3363 401.443 78.3691 400.894 78.3691ZM407.206 64.4994H409.104V78.0752H407.206V64.4994ZM421.535 78.0752C421.314 77.4875 421.104 76.913 420.908 76.3513C420.712 75.7768 420.509 75.1955 420.302 74.6078H414.151L412.915 78.0752H410.938C411.458 76.6387 411.95 75.313 412.406 74.0984C412.862 72.8707 413.307 71.7085 413.738 70.6114C414.183 69.5144 414.621 68.4697 415.052 67.477C415.483 66.4715 415.932 65.4789 416.402 64.4994H418.148C418.618 65.4789 419.066 66.4715 419.497 67.477C419.928 68.4697 420.359 69.5144 420.79 70.6114C421.236 71.7085 421.684 72.8707 422.144 74.0984C422.6 75.313 423.088 76.6387 423.611 78.0752H421.535ZM419.754 73.0406C419.334 71.9044 418.917 70.8073 418.5 69.7495C418.094 68.6784 417.67 67.6533 417.225 66.6738C416.769 67.6533 416.331 68.6784 415.914 69.7495C415.508 70.8073 415.102 71.9044 414.7 73.0406H419.754ZM433.264 64.4994V66.1449H428.993V78.0752H427.091V66.1449H422.821V64.4994H433.264ZM435.269 64.4994H437.168V78.0752H435.269V64.4994ZM439.981 71.2775C439.981 70.1153 440.152 69.0898 440.491 68.2019C440.843 67.3139 441.314 66.5759 441.901 65.9882C442.503 65.3873 443.194 64.9367 443.978 64.6365C444.776 64.3362 445.616 64.1859 446.507 64.1859C447.379 64.1859 448.202 64.3362 448.975 64.6365C449.759 64.9367 450.442 65.3873 451.03 65.9882C451.618 66.5759 452.081 67.3139 452.423 68.2019C452.775 69.0898 452.95 70.1153 452.95 71.2775C452.95 72.4397 452.775 73.4651 452.423 74.3531C452.081 75.2411 451.618 75.9855 451.03 76.5864C450.442 77.1741 449.759 77.6182 448.975 77.9185C448.202 78.2188 447.379 78.3691 446.507 78.3691C445.616 78.3691 444.776 78.2188 443.978 77.9185C443.194 77.6182 442.503 77.1741 441.901 76.5864C441.314 75.9855 440.843 75.2411 440.491 74.3531C440.152 73.4651 439.981 72.4397 439.981 71.2775ZM441.98 71.2775C441.98 72.1003 442.083 72.8511 442.293 73.5303C442.503 74.1964 442.795 74.7645 443.176 75.2347C443.568 75.7048 444.038 76.0706 444.587 76.3317C445.146 76.58 445.773 76.7039 446.467 76.7039C447.158 76.7039 447.778 76.58 448.327 76.3317C448.875 76.0706 449.338 75.7048 449.719 75.2347C450.111 74.7645 450.41 74.1964 450.621 73.5303C450.827 72.8511 450.934 72.1003 450.934 71.2775C450.934 70.4547 450.827 69.7103 450.621 69.0442C450.41 68.365 450.111 67.7905 449.719 67.3203C449.338 66.8501 448.875 66.4911 448.327 66.2429C447.778 65.9818 447.158 65.8511 446.467 65.8511C445.773 65.8511 445.146 65.9818 444.587 66.2429C444.038 66.4911 443.568 66.8501 443.176 67.3203C442.795 67.7905 442.503 68.365 442.293 69.0442C442.083 69.7103 441.98 70.4547 441.98 71.2775ZM465.082 78.0752C464.797 77.5919 464.462 77.0501 464.084 76.4492C463.717 75.8484 463.318 75.2282 462.887 74.5882C462.456 73.9353 462.008 73.2757 461.538 72.6096C461.078 71.9435 460.622 71.3035 460.166 70.6898C459.707 70.0629 459.265 69.4752 458.834 68.9267C458.403 68.3782 458.004 67.8948 457.637 67.477V78.0752H455.778V64.4994H457.285C457.901 65.1522 458.553 65.9162 459.244 66.7914C459.949 67.6533 460.644 68.5481 461.32 69.4752C462.015 70.3895 462.659 71.2907 463.261 72.1786C463.874 73.0666 464.391 73.857 464.807 74.549V64.4994H466.67V78.0752H465.082ZM474.015 71.2775C474.015 70.1153 474.186 69.0898 474.524 68.2019C474.877 67.3139 475.347 66.5759 475.934 65.9882C476.536 65.3873 477.227 64.9367 478.011 64.6365C478.809 64.3362 479.649 64.1859 480.54 64.1859C481.412 64.1859 482.235 64.3362 483.008 64.6365C483.792 64.9367 484.476 65.3873 485.063 65.9882C485.651 66.5759 486.114 67.3139 486.456 68.2019C486.809 69.0898 486.983 70.1153 486.983 71.2775C486.983 72.4397 486.809 73.4651 486.456 74.3531C486.114 75.2411 485.651 75.9855 485.063 76.5864C484.476 77.1741 483.792 77.6182 483.008 77.9185C482.235 78.2188 481.412 78.3691 480.54 78.3691C479.649 78.3691 478.809 78.2188 478.011 77.9185C477.227 77.6182 476.536 77.1741 475.934 76.5864C475.347 75.9855 474.877 75.2411 474.524 74.3531C474.186 73.4651 474.015 72.4397 474.015 71.2775ZM476.013 71.2775C476.013 72.1003 476.12 72.8511 476.326 73.5303C476.536 74.1964 476.828 74.7645 477.21 75.2347C477.601 75.7048 478.071 76.0706 478.62 76.3317C479.179 76.58 479.806 76.7039 480.501 76.7039C481.192 76.7039 481.811 76.58 482.36 76.3317C482.908 76.0706 483.371 75.7048 483.753 75.2347C484.144 74.7645 484.444 74.1964 484.654 73.5303C484.86 72.8511 484.967 72.1003 484.967 71.2775C484.967 70.4547 484.86 69.7103 484.654 69.0442C484.444 68.365 484.144 67.7905 483.753 67.3203C483.371 66.8501 482.908 66.4911 482.36 66.2429C481.811 65.9818 481.192 65.8511 480.501 65.8511C479.806 65.8511 479.179 65.9818 478.62 66.2429C478.071 66.4911 477.601 66.8501 477.21 67.3203C476.828 67.7905 476.536 68.365 476.326 69.0442C476.12 69.7103 476.013 70.4547 476.013 71.2775ZM489.811 78.0752V64.4994H498V66.1253H491.71V70.2196H497.295V71.826H491.71V78.0752H489.811Z" fill="black"/>
<path d="M231.531 86.9388C231.766 87.3698 232.034 87.9051 232.334 88.5452C232.647 89.1721 232.967 89.8577 233.294 90.6021C233.633 91.3334 233.966 92.0846 234.293 92.855C234.619 93.6254 234.926 94.3502 235.214 95.0295C235.501 94.3502 235.808 93.6254 236.134 92.855C236.461 92.0846 236.787 91.3334 237.114 90.6021C237.453 89.8577 237.773 89.1721 238.074 88.5452C238.387 87.9051 238.661 87.3698 238.897 86.9388H241.678C241.809 87.8399 241.927 88.8522 242.031 89.9753C242.148 91.0855 242.246 92.2477 242.325 93.4623C242.416 94.6637 242.495 95.8718 242.56 97.0864C242.638 98.301 242.703 99.4436 242.756 100.515H239.778C239.739 99.1957 239.687 97.7589 239.621 96.2049C239.556 94.6508 239.458 93.0837 239.327 91.5033C239.092 92.0518 238.831 92.6591 238.544 93.3251C238.256 93.9912 237.969 94.6573 237.682 95.3233C237.408 95.9894 237.14 96.6294 236.879 97.2431C236.618 97.844 236.395 98.3598 236.213 98.7907H234.077C233.895 98.3598 233.672 97.844 233.411 97.2431C233.15 96.6294 232.876 95.9894 232.589 95.3233C232.314 94.6573 232.034 93.9912 231.746 93.3251C231.459 92.6591 231.198 92.0518 230.963 91.5033C230.832 93.0837 230.734 94.6508 230.669 96.2049C230.604 97.7589 230.551 99.1957 230.512 100.515H227.534C227.587 99.4436 227.645 98.301 227.711 97.0864C227.789 95.8718 227.867 94.6637 227.946 93.4623C228.037 92.2477 228.135 91.0855 228.24 89.9753C228.357 88.8522 228.481 87.8399 228.612 86.9388H231.531ZM245.507 100.515V86.9388H254.675V89.5051H248.563V92.1693H253.99V94.6768H248.563V97.9484H255.126V100.515H245.507ZM267.457 86.9388V89.5443H263.363V100.515H260.307V89.5443H256.212V86.9388H267.457ZM276.904 100.515C276.76 100.045 276.597 99.5612 276.414 99.065C276.244 98.5688 276.074 98.0723 275.904 97.5762H270.615C270.446 98.0723 270.269 98.5688 270.086 99.065C269.917 99.5612 269.76 100.045 269.616 100.515H266.443C266.952 99.0518 267.435 97.7001 267.892 96.4595C268.35 95.219 268.793 94.05 269.224 92.9529C269.668 91.8559 270.099 90.8176 270.517 89.8381C270.948 88.8454 271.392 87.8791 271.849 86.9388H274.768C275.212 87.8791 275.65 88.8454 276.081 89.8381C276.512 90.8176 276.943 91.8559 277.374 92.9529C277.818 94.05 278.268 95.219 278.725 96.4595C279.183 97.7001 279.666 99.0518 280.175 100.515H276.904ZM273.24 90.0144C273.175 90.2103 273.077 90.4782 272.946 90.8176C272.816 91.1571 272.666 91.5489 272.496 91.993C272.326 92.4372 272.137 92.9269 271.928 93.4623C271.732 93.9976 271.53 94.5593 271.32 95.147H275.18C274.971 94.5593 274.768 93.9976 274.572 93.4623C274.376 92.9269 274.187 92.4372 274.004 91.993C273.835 91.5489 273.684 91.1571 273.554 90.8176C273.423 90.4782 273.319 90.2103 273.24 90.0144ZM286.458 100.691C285.713 100.691 284.969 100.665 284.225 100.613C283.493 100.573 282.729 100.469 281.933 100.299V87.1347C282.559 87.0172 283.245 86.9324 283.989 86.88C284.734 86.8149 285.426 86.7821 286.066 86.7821C286.928 86.7821 287.718 86.8473 288.436 86.978C289.168 87.0955 289.794 87.3046 290.317 87.6049C290.84 87.9051 291.244 88.3037 291.532 88.7998C291.832 89.2832 291.982 89.8837 291.982 90.6021C291.982 91.686 291.46 92.5415 290.415 93.1684C291.277 93.495 291.865 93.9388 292.178 94.5005C292.492 95.0622 292.648 95.6955 292.648 96.4008C292.648 97.8244 292.126 98.8951 291.081 99.6135C290.049 100.332 288.508 100.691 286.458 100.691ZM284.91 94.5985V98.1051C285.132 98.1311 285.374 98.1507 285.635 98.1639C285.896 98.177 286.184 98.1835 286.497 98.1835C287.411 98.1835 288.149 98.0527 288.711 97.7917C289.272 97.5306 289.553 97.0472 289.553 96.342C289.553 95.7151 289.318 95.271 288.848 95.0099C288.378 94.7356 287.705 94.5985 286.83 94.5985H284.91ZM284.91 92.2673H286.399C287.339 92.2673 288.012 92.1497 288.417 91.9147C288.822 91.6664 289.024 91.2746 289.024 90.7393C289.024 90.1907 288.815 89.8054 288.397 89.5835C287.979 89.3616 287.365 89.2504 286.556 89.2504C286.295 89.2504 286.014 89.2568 285.713 89.27C285.413 89.27 285.145 89.2832 284.91 89.3092V92.2673ZM297.661 93.7169C297.661 94.383 297.739 94.9839 297.896 95.5192C298.066 96.0546 298.301 96.5183 298.601 96.9101C298.915 97.2887 299.293 97.5826 299.737 97.7917C300.181 98.0007 300.691 98.1051 301.265 98.1051C301.827 98.1051 302.33 98.0007 302.774 97.7917C303.231 97.5826 303.61 97.2887 303.91 96.9101C304.223 96.5183 304.458 96.0546 304.615 95.5192C304.785 94.9839 304.87 94.383 304.87 93.7169C304.87 93.0509 304.785 92.45 304.615 91.9147C304.458 91.3661 304.223 90.9024 303.91 90.5238C303.61 90.132 303.231 89.8317 302.774 89.6226C302.33 89.4136 301.827 89.3092 301.265 89.3092C300.691 89.3092 300.181 89.4203 299.737 89.6422C299.293 89.8513 298.915 90.1516 298.601 90.5434C298.301 90.922 298.066 91.3857 297.896 91.9343C297.739 92.4696 297.661 93.0641 297.661 93.7169ZM308.024 93.7169C308.024 94.8792 307.848 95.9046 307.495 96.7926C307.156 97.6677 306.685 98.4054 306.084 99.0062C305.484 99.5939 304.766 100.038 303.93 100.338C303.107 100.639 302.219 100.789 301.265 100.789C300.338 100.789 299.463 100.639 298.64 100.338C297.817 100.038 297.099 99.5939 296.485 99.0062C295.872 98.4054 295.388 97.6677 295.036 96.7926C294.683 95.9046 294.507 94.8792 294.507 93.7169C294.507 92.5547 294.689 91.536 295.055 90.6609C295.421 89.7729 295.911 89.0285 296.525 88.4276C297.151 87.8268 297.87 87.3762 298.679 87.0759C299.502 86.7757 300.364 86.6254 301.265 86.6254C302.192 86.6254 303.068 86.7757 303.89 87.0759C304.713 87.3762 305.432 87.8268 306.045 88.4276C306.659 89.0285 307.142 89.7729 307.495 90.6609C307.848 91.536 308.024 92.5547 308.024 93.7169ZM319.641 97.8896V100.515H310.571V86.9388H313.627V97.8896H319.641ZM321.61 86.9388H324.666V100.515H321.61V86.9388ZM333.999 100.789C331.792 100.789 330.107 100.175 328.945 98.9475C327.795 97.7197 327.221 95.9762 327.221 93.7169C327.221 92.5939 327.397 91.5948 327.75 90.7197C328.102 89.8317 328.585 89.0873 329.199 88.4864C329.813 87.8727 330.544 87.409 331.393 87.0955C332.242 86.7821 333.163 86.6254 334.155 86.6254C334.73 86.6254 335.253 86.671 335.723 86.7625C336.193 86.8409 336.604 86.9388 336.957 87.0563C337.309 87.1607 337.603 87.2718 337.838 87.3894C338.073 87.5069 338.243 87.5985 338.348 87.6636L337.466 90.132C337.048 89.9101 336.558 89.7206 335.997 89.5639C335.448 89.4071 334.822 89.3288 334.116 89.3288C333.646 89.3288 333.182 89.4071 332.725 89.5639C332.281 89.7206 331.883 89.9752 331.53 90.3279C331.191 90.6673 330.916 91.1115 330.708 91.66C330.499 92.2085 330.394 92.8746 330.394 93.6582C330.394 94.285 330.459 94.8728 330.59 95.4213C330.734 95.9566 330.956 96.4204 331.256 96.8122C331.57 97.204 331.974 97.5174 332.471 97.7525C332.967 97.9744 333.568 98.0855 334.273 98.0855C334.717 98.0855 335.115 98.0595 335.468 98.0071C335.821 97.9548 336.134 97.896 336.408 97.8308C336.683 97.7525 336.924 97.6677 337.133 97.5762C337.342 97.4846 337.531 97.3999 337.701 97.3215L338.544 99.7702C338.113 100.031 337.505 100.266 336.722 100.475C335.938 100.685 335.03 100.789 333.999 100.789ZM354.307 100.515C354.163 100.045 354 99.5612 353.817 99.065C353.648 98.5688 353.478 98.0723 353.308 97.5762H348.019C347.849 98.0723 347.673 98.5688 347.49 99.065C347.32 99.5612 347.163 100.045 347.02 100.515H343.846C344.355 99.0518 344.838 97.7001 345.296 96.4595C345.753 95.219 346.197 94.05 346.628 92.9529C347.072 91.8559 347.503 90.8176 347.921 89.8381C348.352 88.8454 348.796 87.8791 349.253 86.9388H352.172C352.616 87.8791 353.053 88.8454 353.484 89.8381C353.915 90.8176 354.346 91.8559 354.777 92.9529C355.221 94.05 355.672 95.219 356.129 96.4595C356.586 97.7001 357.069 99.0518 357.579 100.515H354.307ZM350.644 90.0144C350.578 90.2103 350.48 90.4782 350.35 90.8176C350.219 91.1571 350.069 91.5489 349.899 91.993C349.73 92.4372 349.54 92.9269 349.331 93.4623C349.135 93.9976 348.933 94.5593 348.724 95.147H352.583C352.374 94.5593 352.172 93.9976 351.976 93.4623C351.78 92.9269 351.591 92.4372 351.408 91.993C351.238 91.5489 351.088 91.1571 350.957 90.8176C350.827 90.4782 350.722 90.2103 350.644 90.0144ZM368.446 100.515C367.57 98.9606 366.622 97.4259 365.603 95.911C364.585 94.3962 363.502 92.9661 362.352 91.6208V100.515H359.335V86.9388H361.824C362.255 87.3698 362.733 87.8987 363.253 88.5256C363.776 89.1525 364.303 89.8249 364.841 90.5434C365.39 91.2486 365.931 91.9866 366.465 92.757C367.003 93.5146 367.506 94.2459 367.976 94.9511V86.9388H371.01V100.515H368.446ZM377.201 98.0267C377.343 98.0399 377.507 98.0527 377.689 98.0659C377.885 98.0659 378.113 98.0659 378.376 98.0659C379.904 98.0659 381.033 97.6805 381.763 96.9101C382.508 96.1397 382.882 95.0751 382.882 93.7169C382.882 92.2933 382.529 91.2158 381.824 90.4846C381.119 89.7533 380 89.3876 378.472 89.3876C378.262 89.3876 378.048 89.394 377.828 89.4071C377.603 89.4071 377.397 89.4203 377.201 89.4463V98.0267ZM386.034 93.7169C386.034 94.8923 385.852 95.9174 385.486 96.7926C385.119 97.6677 384.599 98.3925 383.918 98.9671C383.252 99.5416 382.437 99.9726 381.471 100.26C380.503 100.547 379.42 100.691 378.219 100.691C377.671 100.691 377.03 100.665 376.3 100.613C375.566 100.573 374.85 100.482 374.145 100.338V87.1151C374.85 86.9844 375.58 86.8996 376.339 86.8604C377.108 86.8081 377.767 86.7821 378.316 86.7821C379.477 86.7821 380.531 86.9128 381.471 87.1739C382.422 87.435 383.238 87.8464 383.918 88.4081C384.599 88.9698 385.119 89.6878 385.486 90.563C385.852 91.4381 386.034 92.4892 386.034 93.7169ZM397.82 100.691C397.076 100.691 396.331 100.665 395.587 100.613C394.853 100.573 394.091 100.469 393.293 100.299V87.1347C393.92 87.0172 394.607 86.9324 395.352 86.88C396.096 86.8149 396.787 86.7821 397.428 86.7821C398.29 86.7821 399.077 86.8473 399.797 86.978C400.527 87.0955 401.154 87.3046 401.678 87.6049C402.201 87.9051 402.604 88.3037 402.892 88.7998C403.191 89.2832 403.344 89.8837 403.344 90.6021C403.344 91.686 402.821 92.5415 401.777 93.1684C402.639 93.495 403.227 93.9388 403.54 94.5005C403.854 95.0622 404.011 95.6955 404.011 96.4008C404.011 97.8244 403.487 98.8951 402.443 99.6135C401.41 100.332 399.868 100.691 397.82 100.691ZM396.271 94.5985V98.1051C396.492 98.1311 396.734 98.1507 396.997 98.1639C397.257 98.177 397.546 98.1835 397.859 98.1835C398.771 98.1835 399.508 98.0527 400.071 97.7917C400.634 97.5306 400.915 97.0472 400.915 96.342C400.915 95.7151 400.68 95.271 400.21 95.0099C399.74 94.7356 399.067 94.5985 398.191 94.5985H396.271ZM396.271 92.2673H397.76C398.7 92.2673 399.373 92.1497 399.779 91.9147C400.182 91.6664 400.385 91.2746 400.385 90.7393C400.385 90.1907 400.174 89.8054 399.758 89.5835C399.341 89.3616 398.725 89.2504 397.916 89.2504C397.656 89.2504 397.375 89.2568 397.076 89.27C396.773 89.27 396.506 89.2832 396.271 89.3092V92.2673ZM415.355 100.515C415.209 100.045 415.045 99.5612 414.863 99.065C414.692 98.5688 414.525 98.0723 414.354 97.5762H409.065C408.894 98.0723 408.719 98.5688 408.538 99.065C408.367 99.5612 408.21 100.045 408.067 100.515H404.894C405.403 99.0518 405.884 97.7001 406.344 96.4595C406.799 95.219 407.245 94.05 407.676 92.9529C408.117 91.8559 408.548 90.8176 408.969 89.8381C409.4 88.8454 409.841 87.8791 410.301 86.9388H413.218C413.663 87.8791 414.101 88.8454 414.532 89.8381C414.963 90.8176 415.394 91.8559 415.825 92.9529C416.267 94.05 416.719 95.219 417.175 96.4595C417.631 97.7001 418.115 99.0518 418.625 100.515H415.355ZM411.69 90.0144C411.626 90.2103 411.526 90.4782 411.398 90.8176C411.266 91.1571 411.116 91.5489 410.945 91.993C410.774 92.4372 410.586 92.9269 410.379 93.4623C410.183 93.9976 409.98 94.5593 409.77 95.147H413.631C413.421 94.5593 413.218 93.9976 413.022 93.4623C412.826 92.9269 412.637 92.4372 412.456 91.993C412.285 91.5489 412.135 91.1571 412.003 90.8176C411.871 90.4782 411.768 90.2103 411.69 90.0144ZM424.359 86.7821C426.397 86.7821 427.957 87.1479 429.039 87.8791C430.126 88.5975 430.667 89.7206 430.667 91.2486C430.667 92.2021 430.446 92.9789 430.001 93.5798C429.57 94.1675 428.943 94.6313 428.12 94.9707C428.395 95.3101 428.683 95.7019 428.982 96.1461C429.282 96.5771 429.577 97.0341 429.862 97.5174C430.165 97.9876 430.45 98.4837 430.724 99.0062C430.998 99.5156 431.255 100.019 431.49 100.515H428.06C427.814 100.071 427.558 99.6199 427.298 99.1629C427.048 98.706 426.788 98.2618 426.514 97.8308C426.254 97.3999 425.99 96.9949 425.73 96.6163C425.47 96.2245 425.207 95.8718 424.947 95.5584H423.437V100.515H420.381V87.1347C421.047 87.004 421.734 86.9128 422.439 86.8604C423.159 86.8081 423.796 86.7821 424.359 86.7821ZM424.534 89.3876C424.313 89.3876 424.11 89.394 423.928 89.4071C423.757 89.4203 423.593 89.4331 423.437 89.4463V93.1292H424.299C425.449 93.1292 426.272 92.9857 426.767 92.6983C427.266 92.4108 427.511 91.9211 427.511 91.229C427.511 90.5629 427.258 90.0928 426.749 89.8185C426.254 89.5311 425.513 89.3876 424.534 89.3876ZM433.449 86.9388H436.505V100.515H433.449V86.9388ZM448.736 100.515C448.594 100.045 448.43 99.5612 448.248 99.065C448.077 98.5688 447.906 98.0723 447.739 97.5762H442.45C442.279 98.0723 442.104 98.5688 441.919 99.065C441.752 99.5612 441.595 100.045 441.449 100.515H438.275C438.785 99.0518 439.269 97.7001 439.725 96.4595C440.184 95.219 440.626 94.05 441.057 92.9529C441.502 91.8559 441.933 90.8176 442.35 89.8381C442.781 88.8454 443.226 87.8791 443.682 86.9388H446.603C447.044 87.8791 447.482 88.8454 447.913 89.8381C448.344 90.8176 448.775 91.8559 449.206 92.9529C449.652 94.05 450.1 95.219 450.56 96.4595C451.016 97.7001 451.5 99.0518 452.01 100.515H448.736ZM445.075 90.0144C445.007 90.2103 444.911 90.4782 444.779 90.8176C444.651 91.1571 444.498 91.5489 444.33 91.993C444.159 92.4372 443.971 92.9269 443.76 93.4623C443.564 93.9976 443.361 94.5593 443.155 95.147H447.012C446.806 94.5593 446.603 93.9976 446.407 93.4623C446.211 92.9269 446.022 92.4372 445.837 91.993C445.67 91.5489 445.516 91.1571 445.388 90.8176C445.256 90.4782 445.153 90.2103 445.075 90.0144ZM462.228 86.9388V89.5443H458.132V100.515H455.076V89.5443H450.984V86.9388H462.228ZM468.169 86.7821C470.207 86.7821 471.767 87.1479 472.85 87.8791C473.936 88.5975 474.477 89.7206 474.477 91.2486C474.477 92.2021 474.253 92.9789 473.811 93.5798C473.38 94.1675 472.754 94.6313 471.931 94.9707C472.205 95.3101 472.49 95.7019 472.793 96.1461C473.092 96.5771 473.388 97.0341 473.673 97.5174C473.975 97.9876 474.26 98.4837 474.534 99.0062C474.809 99.5156 475.065 100.019 475.3 100.515H471.87C471.624 100.071 471.368 99.6199 471.108 99.1629C470.859 98.706 470.599 98.2618 470.324 97.8308C470.061 97.3999 469.801 96.9949 469.541 96.6163C469.277 96.2245 469.017 95.8718 468.757 95.5584H467.247V100.515H464.191V87.1347C464.857 87.004 465.544 86.9128 466.25 86.8604C466.966 86.8081 467.607 86.7821 468.169 86.7821ZM468.344 89.3876C468.123 89.3876 467.92 89.394 467.739 89.4071C467.568 89.4203 467.404 89.4331 467.247 89.4463V93.1292H468.109C469.259 93.1292 470.082 92.9857 470.577 92.6983C471.076 92.4108 471.322 91.9211 471.322 91.229C471.322 90.5629 471.069 90.0928 470.559 89.8185C470.061 89.5311 469.324 89.3876 468.344 89.3876ZM477.259 86.9388H480.315V100.515H477.259V86.9388ZM489.647 100.789C487.439 100.789 485.754 100.175 484.593 98.9475C483.443 97.7197 482.869 95.9762 482.869 93.7169C482.869 92.5939 483.044 91.5948 483.396 90.7197C483.749 89.8317 484.233 89.0873 484.846 88.4864C485.462 87.8727 486.192 87.409 487.04 87.0955C487.891 86.7821 488.81 86.6254 489.804 86.6254C490.377 86.6254 490.901 86.671 491.371 86.7625C491.841 86.8409 492.251 86.9388 492.604 87.0563C492.956 87.1607 493.252 87.2718 493.487 87.3894C493.722 87.5069 493.893 87.5985 493.996 87.6636L493.113 90.132C492.696 89.9101 492.208 89.7206 491.645 89.5639C491.097 89.4071 490.47 89.3288 489.765 89.3288C489.295 89.3288 488.832 89.4071 488.372 89.5639C487.93 89.7206 487.532 89.9752 487.179 90.3279C486.841 90.6673 486.566 91.1115 486.356 91.66C486.146 92.2085 486.043 92.8746 486.043 93.6582C486.043 94.285 486.107 94.8728 486.239 95.4213C486.381 95.9566 486.605 96.4204 486.905 96.8122C487.218 97.204 487.624 97.5174 488.119 97.7525C488.614 97.9744 489.216 98.0855 489.922 98.0855C490.367 98.0855 490.762 98.0595 491.115 98.0071C491.467 97.9548 491.781 97.896 492.055 97.8308C492.329 97.7525 492.571 97.6677 492.782 97.5762C492.992 97.4846 493.181 97.3999 493.348 97.3215L494.192 99.7702C493.761 100.031 493.152 100.266 492.368 100.475C491.585 100.685 490.68 100.789 489.647 100.789ZM231.025 121.602C233.011 121.602 234.003 120.923 234.003 119.565C234.003 119.147 233.912 118.795 233.729 118.507C233.559 118.207 233.324 117.952 233.023 117.743C232.723 117.521 232.377 117.332 231.985 117.175C231.607 117.018 231.202 116.862 230.771 116.705C230.274 116.535 229.804 116.346 229.36 116.137C228.916 115.915 228.531 115.66 228.204 115.373C227.878 115.073 227.617 114.72 227.421 114.315C227.238 113.91 227.146 113.42 227.146 112.846C227.146 111.657 227.551 110.73 228.361 110.064C229.171 109.398 230.288 109.065 231.711 109.065C232.534 109.065 233.278 109.156 233.944 109.339C234.623 109.509 235.12 109.698 235.433 109.907L234.826 111.455C234.551 111.285 234.14 111.122 233.592 110.965C233.056 110.795 232.429 110.71 231.711 110.71C231.345 110.71 231.006 110.75 230.692 110.828C230.379 110.906 230.105 111.024 229.869 111.181C229.634 111.337 229.445 111.54 229.301 111.788C229.171 112.023 229.105 112.304 229.105 112.63C229.105 112.996 229.177 113.303 229.321 113.551C229.465 113.799 229.667 114.021 229.928 114.217C230.19 114.4 230.49 114.57 230.829 114.726C231.182 114.883 231.567 115.04 231.985 115.196C232.573 115.432 233.109 115.667 233.592 115.902C234.088 116.137 234.512 116.417 234.865 116.744C235.231 117.071 235.511 117.462 235.707 117.919C235.903 118.364 236.001 118.905 236.001 119.545C236.001 120.734 235.564 121.648 234.689 122.288C233.827 122.928 232.606 123.248 231.025 123.248C230.49 123.248 229.994 123.209 229.536 123.13C229.093 123.065 228.694 122.987 228.341 122.895C227.989 122.791 227.682 122.686 227.421 122.582C227.173 122.464 226.977 122.366 226.833 122.288L227.401 120.721C227.702 120.891 228.159 121.08 228.772 121.289C229.386 121.498 230.137 121.602 231.025 121.602ZM243.352 123.248C242.464 123.248 241.693 123.111 241.04 122.837C240.387 122.562 239.852 122.19 239.434 121.72C239.016 121.237 238.703 120.668 238.494 120.016C238.298 119.363 238.2 118.657 238.2 117.9V109.378H240.1V117.684C240.1 119.043 240.4 120.029 241.001 120.642C241.602 121.256 242.386 121.563 243.352 121.563C243.835 121.563 244.273 121.491 244.665 121.348C245.069 121.191 245.415 120.956 245.703 120.642C245.99 120.329 246.212 119.931 246.369 119.447C246.526 118.951 246.604 118.364 246.604 117.684V109.378H248.504V117.9C248.504 118.657 248.4 119.363 248.191 120.016C247.995 120.668 247.681 121.237 247.25 121.72C246.833 122.19 246.297 122.562 245.644 122.837C245.004 123.111 244.24 123.248 243.352 123.248ZM258.426 117.273C258.635 117.534 258.896 117.88 259.21 118.311C259.536 118.729 259.869 119.199 260.209 119.722C260.548 120.231 260.881 120.766 261.208 121.328C261.547 121.89 261.835 122.432 262.07 122.954H259.993C259.732 122.458 259.445 121.955 259.131 121.446C258.831 120.936 258.524 120.453 258.21 119.996C257.897 119.526 257.584 119.088 257.27 118.683C256.97 118.279 256.696 117.926 256.447 117.626C256.277 117.639 256.101 117.645 255.918 117.645C255.749 117.645 255.572 117.645 255.39 117.645H253.685V122.954H251.785V109.574C252.32 109.443 252.915 109.359 253.568 109.319C254.234 109.267 254.841 109.241 255.39 109.241C257.296 109.241 258.746 109.6 259.738 110.319C260.744 111.037 261.247 112.108 261.247 113.531C261.247 114.432 261.005 115.203 260.522 115.843C260.052 116.483 259.353 116.96 258.426 117.273ZM255.546 110.906C254.737 110.906 254.116 110.926 253.685 110.965V116.078H255.037C255.69 116.078 256.277 116.045 256.8 115.98C257.322 115.915 257.76 115.791 258.113 115.608C258.478 115.425 258.759 115.17 258.955 114.844C259.151 114.504 259.249 114.06 259.249 113.512C259.249 113.002 259.151 112.578 258.955 112.238C258.759 111.899 258.491 111.631 258.152 111.435C257.825 111.239 257.433 111.102 256.976 111.024C256.532 110.945 256.056 110.906 255.546 110.906ZM272.181 116.274H274.082V122.621C273.925 122.673 273.697 122.732 273.396 122.797C273.109 122.863 272.769 122.928 272.377 122.993C271.999 123.058 271.581 123.111 271.123 123.15C270.666 123.202 270.203 123.228 269.733 123.228C268.779 123.228 267.911 123.072 267.127 122.758C266.344 122.445 265.671 121.988 265.109 121.387C264.548 120.786 264.11 120.048 263.797 119.173C263.497 118.298 263.346 117.293 263.346 116.156C263.346 115.02 263.516 114.015 263.856 113.14C264.208 112.252 264.678 111.507 265.266 110.906C265.854 110.305 266.539 109.848 267.323 109.535C268.12 109.222 268.969 109.065 269.87 109.065C270.484 109.065 271.026 109.104 271.496 109.182C271.979 109.261 272.39 109.352 272.73 109.457C273.07 109.561 273.344 109.666 273.553 109.77C273.775 109.874 273.925 109.953 274.003 110.005L273.396 111.592C273.017 111.344 272.514 111.141 271.887 110.985C271.261 110.815 270.621 110.73 269.968 110.73C269.276 110.73 268.642 110.854 268.067 111.102C267.506 111.35 267.023 111.709 266.618 112.18C266.226 112.65 265.919 113.224 265.697 113.904C265.475 114.57 265.364 115.32 265.364 116.156C265.364 116.966 265.456 117.704 265.638 118.37C265.834 119.036 266.122 119.611 266.5 120.094C266.892 120.564 267.369 120.93 267.93 121.191C268.505 121.452 269.178 121.583 269.948 121.583C270.497 121.583 270.96 121.557 271.339 121.504C271.731 121.439 272.012 121.38 272.181 121.328V116.274ZM277.057 122.954V109.378H285.343V111.004H278.957V115.04H284.638V116.627H278.957V121.328H285.833V122.954H277.057ZM287.145 116.156C287.145 114.994 287.315 113.969 287.655 113.081C288.007 112.193 288.477 111.455 289.065 110.867C289.666 110.266 290.358 109.816 291.142 109.515C291.938 109.215 292.78 109.065 293.669 109.065C294.543 109.065 295.366 109.215 296.137 109.515C296.921 109.816 297.606 110.266 298.194 110.867C298.782 111.455 299.245 112.193 299.585 113.081C299.937 113.969 300.114 114.994 300.114 116.156C300.114 117.319 299.937 118.344 299.585 119.232C299.245 120.12 298.782 120.864 298.194 121.465C297.606 122.053 296.921 122.497 296.137 122.797C295.366 123.098 294.543 123.248 293.669 123.248C292.78 123.248 291.938 123.098 291.142 122.797C290.358 122.497 289.666 122.053 289.065 121.465C288.477 120.864 288.007 120.12 287.655 119.232C287.315 118.344 287.145 117.319 287.145 116.156ZM289.143 116.156C289.143 116.979 289.248 117.73 289.457 118.409C289.666 119.075 289.959 119.643 290.338 120.114C290.73 120.584 291.2 120.95 291.749 121.211C292.31 121.459 292.937 121.583 293.63 121.583C294.322 121.583 294.942 121.459 295.491 121.211C296.039 120.95 296.502 120.584 296.881 120.114C297.273 119.643 297.574 119.075 297.783 118.409C297.991 117.73 298.096 116.979 298.096 116.156C298.096 115.334 297.991 114.589 297.783 113.923C297.574 113.244 297.273 112.669 296.881 112.199C296.502 111.729 296.039 111.37 295.491 111.122C294.942 110.861 294.322 110.73 293.63 110.73C292.937 110.73 292.31 110.861 291.749 111.122C291.2 111.37 290.73 111.729 290.338 112.199C289.959 112.669 289.666 113.244 289.457 113.923C289.248 114.589 289.143 115.334 289.143 116.156ZM312.246 122.954C311.959 122.471 311.626 121.929 311.247 121.328C310.882 120.727 310.483 120.107 310.052 119.467C309.621 118.814 309.17 118.155 308.7 117.488C308.243 116.822 307.786 116.182 307.329 115.569C306.872 114.942 306.428 114.354 305.997 113.806C305.566 113.257 305.168 112.774 304.802 112.356V122.954H302.941V109.378H304.449C305.063 110.031 305.716 110.795 306.408 111.67C307.113 112.532 307.806 113.427 308.485 114.354C309.177 115.268 309.824 116.17 310.424 117.058C311.038 117.945 311.554 118.736 311.972 119.428V109.378H313.833V122.954H312.246ZM320.347 121.602C322.332 121.602 323.325 120.923 323.325 119.565C323.325 119.147 323.234 118.795 323.051 118.507C322.881 118.207 322.646 117.952 322.346 117.743C322.045 117.521 321.699 117.332 321.307 117.175C320.929 117.018 320.524 116.862 320.093 116.705C319.597 116.535 319.126 116.346 318.682 116.137C318.238 115.915 317.853 115.66 317.526 115.373C317.2 115.073 316.939 114.72 316.743 114.315C316.56 113.91 316.469 113.42 316.469 112.846C316.469 111.657 316.874 110.73 317.683 110.064C318.493 109.398 319.609 109.065 321.033 109.065C321.856 109.065 322.6 109.156 323.266 109.339C323.946 109.509 324.442 109.698 324.755 109.907L324.148 111.455C323.874 111.285 323.462 111.122 322.914 110.965C322.378 110.795 321.751 110.71 321.033 110.71C320.667 110.71 320.328 110.75 320.014 110.828C319.701 110.906 319.427 111.024 319.192 111.181C318.957 111.337 318.767 111.54 318.623 111.788C318.493 112.023 318.428 112.304 318.428 112.63C318.428 112.996 318.5 113.303 318.643 113.551C318.787 113.799 318.989 114.021 319.25 114.217C319.511 114.4 319.812 114.57 320.152 114.726C320.504 114.883 320.89 115.04 321.307 115.196C321.895 115.432 322.43 115.667 322.914 115.902C323.41 116.137 323.834 116.417 324.187 116.744C324.553 117.071 324.834 117.462 325.029 117.919C325.225 118.364 325.323 118.905 325.323 119.545C325.323 120.734 324.886 121.648 324.011 122.288C323.149 122.928 321.928 123.248 320.347 123.248C319.812 123.248 319.316 123.209 318.859 123.13C318.414 123.065 318.016 122.987 317.664 122.895C317.311 122.791 317.004 122.686 316.743 122.582C316.495 122.464 316.299 122.366 316.155 122.288L316.723 120.721C317.024 120.891 317.481 121.08 318.095 121.289C318.708 121.498 319.459 121.602 320.347 121.602Z" fill="#7F2941"/>
</g>
<defs>
<filter id="filter0_d_248_186" x="-18" y="-15.4744" width="574" height="200.758" filterUnits="userSpaceOnUse" color-interpolation-filters="sRGB">
<feFlood flood-opacity="0" result="BackgroundImageFix"/>
<feColorMatrix in="SourceAlpha" type="matrix" values="0 0 0 0 0 0 0 0 0 0 0 0 0 0 0 0 0 0 127 0" result="hardAlpha"/>
<feOffset/>
<feGaussianBlur stdDeviation="9"/>
<feComposite in2="hardAlpha" operator="out"/>
<feColorMatrix type="matrix" values="0 0 0 0 0 0 0 0 0 0 0 0 0 0 0 0 0 0 0.25 0"/>
<feBlend mode="normal" in2="BackgroundImageFix" result="effect1_dropShadow_248_186"/>
<feBlend mode="normal" in="SourceGraphic" in2="effect1_dropShadow_248_186" result="shape"/>
</filter>
</defs>
</svg>
