<svg width="387" height="95" viewBox="0 0 387 95" fill="none" xmlns="http://www.w3.org/2000/svg">
<path d="M48.1771 94.4681L44.5193 84.3244L44.2644 83.4384V82.4798L44.5193 80.9581L44.9746 79.9399L45.7683 79.3634L46.9025 78.7207L48.1771 78.3889L50.5553 78.1232H52.9053L57.7227 78.3889L62.1834 79.0091L67.6018 80.1431L72.6751 81.3622L74.9074 82.021L77.3426 82.7846L80.1837 84.0037L82.5174 85.6213L90.3304 92.6584L87.6922 88.7787L85.9673 85.934L84.3081 82.7846L83.773 81.0574V79.3634L84.5467 75.1649L84.6482 73.133L84.5467 72.0154L84.3081 71.0363L83.5321 69.2724L82.4346 67.4926L79.7583 65.1008L77.647 63.8878L75.6177 62.9734L73.3854 62.0591L71.2832 61.5574L66.6886 60.4335L62.1834 59.697L57.3536 58.808L52.6376 58.3681L47.5113 58.014H42.8243H36.3118L29.9776 58.3681L23.376 59.3426L16.7741 60.9373L15.3467 57.4824L12.2243 56.0649H8.74504L6.11278 57.9953L5.30105 59.6208L3.30296 62.3639L4.28638 64.1926L4.81969 65.8096L5.90985 66.2245L6.41718 66.4277L6.96084 66.4297L6.62012 66.5293L6.31572 66.7325L5.80838 67.1389L4.81969 68.0242L3.77904 68.9676L3.06877 69.9835L2.76437 70.3899L2.56144 70.7963L2.3585 71.2027L2.23248 71.6564L2.0541 72.117L1.95264 72.5234V73.0314L2.0541 73.6052L2.56144 74.6569L2.86584 75.1649L3.30296 75.6428L3.77904 76.0793L4.28638 76.4856L4.89518 76.892L5.44412 77.1487L6.72158 77.908L8.14212 78.5176L9.56266 79.1271L11.0847 79.5335L14.1287 80.4479L17.2202 81.3123L20.6226 82.0734L24.0004 82.5525L30.5663 83.191L33.5089 83.2925H35.0309L36.5795 83.4384L37.9734 83.8005L39.4954 84.5117L40.916 85.2229L42.289 86.4503L48.1771 94.4681Z" fill="#AEC5CE" stroke="#AEC5CE"/>
<path d="M12.835 66.4495C16.4302 64.1896 17.9287 60.0992 16.182 57.3134C14.4353 54.5277 10.1049 54.1013 6.50967 56.3612C2.91448 58.6211 1.41597 62.7115 3.16266 65.4973C4.90935 68.283 9.2398 68.7094 12.835 66.4495Z" fill="#AEC5CE"/>
<path d="M75.5823 33.541C78.2839 33.3297 80.2141 29.8259 79.8935 25.7149C79.5729 21.6039 77.123 18.4425 74.4214 18.6537C71.7198 18.8649 69.7897 22.3688 70.1103 26.4798C70.4308 30.5908 72.8808 33.7522 75.5823 33.541Z" fill="white"/>
<path d="M44.9746 13.3257C55.4357 23.2445 61.0064 30.1906 71.7619 38.7246C79.9978 45.2594 87.1625 25.1067 91.161 11.5655C91.6419 9.89139 92.0839 8.34876 92.4725 6.98921C93.0633 4.87541 93.5373 3.12492 93.8817 1.94702C94.5978 -0.502853 93.8924 2.02017 92.4725 6.98921C92.0843 8.37782 91.646 9.92288 91.161 11.5655C87.4221 24.5784 81.3264 45.5281 79.6763 50.1033C77.2462 56.8411 88.4185 87.3702 90.1962 92.1446C90.3494 92.5522 90.4318 92.7734 90.4318 92.7734C90.4318 92.7734 90.3484 92.5534 90.1962 92.1446C88.3968 87.3564 76.8312 56.8564 74.4 57.4182C72.2575 57.9132 56.4609 82.1319 50.6026 91.2119C49.8663 92.4296 49.1382 93.5659 48.4245 94.6022C48.4245 94.6022 49.2478 93.3119 50.6026 91.2119C58.2968 78.4846 66.848 56.8671 68.5149 47.665C70.3414 37.5825 55.6357 26.6685 44.9746 13.3257Z" fill="white"/>
<path d="M44.9746 13.3257C55.4357 23.2445 61.0064 30.1906 71.7619 38.7246C82.5174 47.2587 91.4465 10.2779 93.8817 1.94704C96.3169 -6.38379 82.3145 42.7884 79.6763 50.1033C77.0382 57.4182 90.4318 92.7735 90.4318 92.7735C90.4318 92.7735 77.0382 56.8086 74.4 57.4182C71.7619 58.0278 48.4245 94.6022 48.4245 94.6022C56.5977 82.7348 66.6885 57.7476 68.5149 47.665C70.3414 37.5825 55.6357 26.6685 44.9746 13.3257Z" stroke="white"/>
<path d="M112.475 33.1211C111.559 33.1211 110.764 32.9757 110.09 32.6847C109.416 32.3938 108.864 31.999 108.432 31.5003C108.001 30.9877 107.678 30.3851 107.462 29.6926C107.26 29.0001 107.159 28.252 107.159 27.4484V18.4096H109.12V27.2199C109.12 28.6604 109.43 29.7066 110.05 30.3575C110.67 31.0085 111.478 31.3341 112.475 31.3341C112.974 31.3341 113.426 31.2578 113.83 31.1055C114.248 30.9393 114.605 30.69 114.901 30.3575C115.198 30.025 115.427 29.6027 115.589 29.09C115.75 28.5637 115.831 27.9403 115.831 27.2199V18.4096H117.792V27.4484C117.792 28.252 117.684 29.0001 117.469 29.6926C117.266 30.3851 116.943 30.9877 116.498 31.5003C116.067 31.999 115.515 32.3938 114.841 32.6847C114.18 32.9757 113.392 33.1211 112.475 33.1211ZM129.757 20.0096C129.447 20.3696 129.083 20.806 128.665 21.3187C128.261 21.8174 127.83 22.3784 127.371 23.0018C126.913 23.6111 126.441 24.2625 125.956 24.955C125.471 25.6339 124.993 26.3264 124.521 27.0329C124.063 27.7254 123.625 28.4183 123.207 29.1108C122.789 29.8033 122.412 30.4614 122.075 31.0848H129.959V32.8094H119.79V31.4588C120.074 30.9045 120.404 30.2952 120.781 29.6302C121.172 28.9653 121.583 28.2864 122.014 27.5939C122.459 26.9014 122.917 26.2017 123.389 25.4952C123.861 24.7888 124.326 24.1098 124.784 23.4589C125.256 22.8079 125.707 22.1982 126.138 21.6303C126.583 21.0625 126.987 20.5638 127.351 20.1343H120.154V18.4096H129.757V20.0096ZM136.231 32.9341C135.948 32.9341 135.638 32.9273 135.301 32.9133C134.978 32.8993 134.647 32.8785 134.31 32.851C133.987 32.8234 133.664 32.7886 133.34 32.7471C133.017 32.7055 132.72 32.65 132.451 32.5808V18.6174C132.72 18.5483 133.017 18.4927 133.34 18.4512C133.664 18.4096 133.987 18.3749 134.31 18.3473C134.647 18.3197 134.978 18.2989 135.301 18.2849C135.624 18.271 135.928 18.2642 136.211 18.2642C137.019 18.2642 137.774 18.3265 138.475 18.4512C139.189 18.5758 139.802 18.7904 140.314 19.0953C140.84 19.3862 141.251 19.7742 141.548 20.2589C141.844 20.7437 141.992 21.3394 141.992 22.0459C141.992 22.8355 141.81 23.4865 141.447 23.9991C141.083 24.4978 140.597 24.8719 139.991 25.1212C140.813 25.3706 141.467 25.7654 141.952 26.3056C142.437 26.8459 142.68 27.6079 142.68 28.5913C142.68 30.0318 142.161 31.1195 141.123 31.8536C140.099 32.574 138.468 32.9341 136.231 32.9341ZM134.391 26.0978V31.1679C134.539 31.1819 134.715 31.1955 134.917 31.2094C135.092 31.2234 135.294 31.237 135.523 31.251C135.766 31.251 136.042 31.251 136.352 31.251C136.931 31.251 137.477 31.2162 137.99 31.1471C138.515 31.064 138.973 30.9253 139.364 30.7315C139.755 30.5377 140.065 30.2676 140.294 29.9211C140.537 29.5747 140.658 29.1383 140.658 28.6121C140.658 28.141 140.57 27.7462 140.395 27.4277C140.22 27.0952 139.964 26.8319 139.627 26.6381C139.304 26.4443 138.913 26.3056 138.455 26.2225C137.996 26.1394 137.484 26.0978 136.918 26.0978H134.391ZM134.391 24.4771H136.453C136.938 24.4771 137.396 24.4423 137.828 24.3732C138.259 24.304 138.63 24.1794 138.94 23.9991C139.263 23.8189 139.512 23.5836 139.688 23.2927C139.876 23.0018 139.971 22.6345 139.971 22.1914C139.971 21.7758 139.876 21.4294 139.688 21.1524C139.499 20.8615 139.236 20.633 138.899 20.4667C138.576 20.2865 138.192 20.155 137.747 20.0719C137.302 19.9888 136.83 19.9472 136.332 19.9472C135.833 19.9472 135.443 19.9541 135.159 19.968C134.876 19.982 134.62 20.0028 134.391 20.0304V24.4771ZM145.44 32.8094V18.4096H153.992V20.1343H147.401V24.4147H153.264V26.0978H147.401V31.0848H154.497V32.8094H145.44ZM167.36 18.4096C166.942 18.8807 166.471 19.407 165.945 19.9888C165.419 20.5566 164.867 21.1456 164.287 21.755C163.721 22.3508 163.155 22.9394 162.589 23.5212C162.023 24.103 161.491 24.6433 160.992 25.142C161.572 25.5576 162.185 26.0702 162.832 26.6796C163.479 27.289 164.112 27.9403 164.732 28.6329C165.352 29.3254 165.932 30.0318 166.471 30.7523C167.023 31.4728 167.481 32.1585 167.845 32.8094H165.541C165.136 32.1585 164.671 31.5071 164.146 30.8562C163.62 30.1913 163.061 29.5611 162.468 28.9653C161.889 28.3559 161.295 27.7949 160.689 27.2822C160.096 26.7695 159.516 26.3332 158.95 25.9731V32.8094H156.989V18.4096H158.95V24.768C159.422 24.3108 159.941 23.7982 160.507 23.2303C161.073 22.6485 161.632 22.0667 162.185 21.4849C162.738 20.9031 163.256 20.3489 163.741 19.8226C164.24 19.2823 164.658 18.8112 164.995 18.4096H167.36ZM169.703 18.4096H171.664V32.8094H169.703V18.4096ZM178.387 31.3757C180.435 31.3757 181.46 30.6552 181.46 29.2147C181.46 28.7715 181.365 28.3975 181.177 28.0926C181.001 27.7741 180.759 27.504 180.449 27.2822C180.139 27.0468 179.782 26.8459 179.378 26.6796C178.987 26.5134 178.569 26.3472 178.124 26.1809C177.612 26.0007 177.127 25.8001 176.669 25.5783C176.21 25.343 175.813 25.0728 175.476 24.768C175.139 24.4495 174.87 24.0755 174.667 23.6459C174.478 23.2163 174.384 22.6969 174.384 22.0875C174.384 20.8268 174.802 19.8434 175.638 19.1369C176.473 18.4304 177.625 18.0771 179.095 18.0771C179.944 18.0771 180.712 18.1742 181.399 18.368C182.1 18.5483 182.612 18.7489 182.936 18.9706L182.309 20.6122C182.026 20.432 181.601 20.2589 181.035 20.0927C180.482 19.9125 179.836 19.8226 179.095 19.8226C178.717 19.8226 178.367 19.8641 178.043 19.9472C177.72 20.0304 177.437 20.155 177.194 20.3213C176.952 20.4875 176.756 20.7021 176.608 20.9654C176.473 21.2148 176.406 21.5125 176.406 21.8589C176.406 22.2469 176.48 22.5722 176.628 22.8355C176.776 23.0989 176.985 23.3342 177.255 23.542C177.524 23.7358 177.834 23.916 178.185 24.0823C178.549 24.2485 178.946 24.4147 179.378 24.581C179.984 24.8303 180.537 25.0797 181.035 25.329C181.547 25.5783 181.985 25.8761 182.349 26.2225C182.726 26.5689 183.016 26.9845 183.219 27.4692C183.421 27.9403 183.522 28.515 183.522 29.1939C183.522 30.4546 183.07 31.424 182.167 32.1029C181.278 32.7818 180.018 33.1211 178.387 33.1211C177.834 33.1211 177.322 33.0795 176.851 32.9964C176.392 32.9273 175.981 32.8442 175.618 32.7471C175.254 32.6364 174.937 32.5253 174.667 32.4146C174.411 32.2899 174.209 32.1861 174.061 32.1029L174.647 30.4406C174.957 30.6208 175.429 30.8214 176.062 31.0432C176.696 31.265 177.47 31.3757 178.387 31.3757ZM195.251 18.4096V20.155H190.844V32.8094H188.883V20.155H184.476V18.4096H195.251ZM205.379 32.8094C205.15 32.186 204.934 31.5767 204.732 30.9809C204.53 30.3715 204.321 29.7549 204.105 29.1315H197.758L196.484 32.8094H194.442C194.981 31.2858 195.487 29.8796 195.958 28.5913C196.43 27.289 196.888 26.0563 197.333 24.8926C197.791 23.729 198.243 22.6209 198.688 21.568C199.132 20.5015 199.597 19.4486 200.082 18.4096H201.882C202.367 19.4486 202.832 20.5015 203.276 21.568C203.721 22.6209 204.166 23.729 204.611 24.8926C205.069 26.0563 205.534 27.289 206.006 28.5913C206.477 29.8796 206.983 31.2858 207.522 32.8094H205.379ZM203.539 27.4692C203.108 26.264 202.677 25.1004 202.245 23.9784C201.828 22.8423 201.39 21.755 200.931 20.7161C200.46 21.755 200.008 22.8423 199.577 23.9784C199.159 25.1004 198.742 26.264 198.324 27.4692H203.539ZM219.026 32.8094C218.73 32.2967 218.386 31.7221 217.995 31.0848C217.618 30.4474 217.207 29.7897 216.762 29.1108C216.317 28.4183 215.852 27.7186 215.367 27.0121C214.895 26.3056 214.424 25.6267 213.952 24.9758C213.48 24.3108 213.022 23.6875 212.578 23.1057C212.133 22.5238 211.721 22.0112 211.344 21.568V32.8094H209.424V18.4096H210.98C211.614 19.1021 212.287 19.9125 213.002 20.8407C213.73 21.755 214.444 22.7041 215.145 23.6875C215.859 24.6573 216.526 25.6131 217.146 26.555C217.78 27.4968 218.312 28.3351 218.743 29.0692V18.4096H220.664V32.8094H219.026ZM238.17 32.8094C237.941 32.186 237.725 31.5767 237.523 30.9809C237.321 30.3715 237.112 29.7549 236.896 29.1315H230.549L229.275 32.8094H227.233C227.772 31.2858 228.278 29.8796 228.75 28.5913C229.221 27.289 229.68 26.0563 230.124 24.8926C230.582 23.729 231.034 22.6209 231.479 21.568C231.923 20.5015 232.388 19.4486 232.874 18.4096H234.673C235.158 19.4486 235.623 20.5015 236.068 21.568C236.512 22.6209 236.957 23.729 237.402 24.8926C237.86 26.0563 238.325 27.289 238.797 28.5913C239.268 29.8796 239.774 31.2858 240.313 32.8094H238.17ZM236.33 27.4692C235.899 26.264 235.468 25.1004 235.037 23.9784C234.619 22.8423 234.181 21.755 233.723 20.7161C233.251 21.755 232.799 22.8423 232.368 23.9784C231.95 25.1004 231.532 26.264 231.115 27.4692H236.33ZM245.785 31.3757C247.836 31.3757 248.858 30.6552 248.858 29.2147C248.858 28.7715 248.766 28.3975 248.574 28.0926C248.402 27.7741 248.159 27.504 247.847 27.2822C247.538 27.0468 247.181 26.8459 246.777 26.6796C246.384 26.5134 245.969 26.3472 245.524 26.1809C245.009 26.0007 244.524 25.8001 244.068 25.5783C243.609 25.343 243.212 25.0728 242.874 24.768C242.539 24.4495 242.267 24.0755 242.065 23.6459C241.878 23.2163 241.782 22.6969 241.782 22.0875C241.782 20.8268 242.201 19.8434 243.035 19.1369C243.873 18.4304 245.024 18.0771 246.494 18.0771C247.343 18.0771 248.111 18.1742 248.799 18.368C249.497 18.5483 250.012 18.7489 250.335 18.9706L249.707 20.6122C249.424 20.432 249.001 20.2589 248.435 20.0927C247.88 19.9125 247.233 19.8226 246.494 19.8226C246.116 19.8226 245.766 19.8641 245.443 19.9472C245.119 20.0304 244.836 20.155 244.594 20.3213C244.351 20.4875 244.156 20.7021 244.006 20.9654C243.873 21.2148 243.804 21.5125 243.804 21.8589C243.804 22.2469 243.877 22.5722 244.028 22.8355C244.175 23.0989 244.384 23.3342 244.653 23.542C244.925 23.7358 245.233 23.916 245.583 24.0823C245.946 24.2485 246.343 24.4147 246.777 24.581C247.384 24.8303 247.935 25.0797 248.435 25.329C248.946 25.5783 249.383 25.8761 249.747 26.2225C250.126 26.5689 250.416 26.9845 250.618 27.4692C250.82 27.9403 250.92 28.515 250.92 29.1939C250.92 30.4546 250.467 31.424 249.567 32.1029C248.677 32.7818 247.417 33.1211 245.785 33.1211C245.233 33.1211 244.722 33.0795 244.248 32.9964C243.793 32.9273 243.381 32.8442 243.017 32.7471C242.653 32.6364 242.337 32.5253 242.065 32.4146C241.811 32.2899 241.609 32.1861 241.459 32.1029L242.047 30.4406C242.355 30.6208 242.826 30.8214 243.462 31.0432C244.094 31.265 244.87 31.3757 245.785 31.3757ZM256.543 31.3757C258.594 31.3757 259.616 30.6552 259.616 29.2147C259.616 28.7715 259.524 28.3975 259.333 28.0926C259.16 27.7741 258.918 27.504 258.605 27.2822C258.296 27.0468 257.94 26.8459 257.536 26.6796C257.146 26.5134 256.727 26.3472 256.282 26.1809C255.771 26.0007 255.286 25.8001 254.827 25.5783C254.367 25.343 253.97 25.0728 253.632 24.768C253.298 24.4495 253.026 24.0755 252.823 23.6459C252.636 23.2163 252.54 22.6969 252.54 22.0875C252.54 20.8268 252.959 19.8434 253.794 19.1369C254.632 18.4304 255.782 18.0771 257.253 18.0771C258.102 18.0771 258.87 18.1742 259.557 18.368C260.259 18.5483 260.77 18.7489 261.093 18.9706L260.465 20.6122C260.182 20.432 259.759 20.2589 259.193 20.0927C258.642 19.9125 257.995 19.8226 257.253 19.8226C256.874 19.8226 256.525 19.8641 256.201 19.9472C255.878 20.0304 255.595 20.155 255.352 20.3213C255.11 20.4875 254.915 20.7021 254.764 20.9654C254.632 21.2148 254.562 21.5125 254.562 21.8589C254.562 22.2469 254.639 22.5722 254.786 22.8355C254.933 23.0989 255.143 23.3342 255.411 23.542C255.683 23.7358 255.992 23.916 256.341 24.0823C256.705 24.2485 257.105 24.4147 257.536 24.581C258.142 24.8303 258.693 25.0797 259.193 25.329C259.704 25.5783 260.141 25.8761 260.505 26.2225C260.884 26.5689 261.174 26.9845 261.376 27.4692C261.579 27.9403 261.678 28.515 261.678 29.1939C261.678 30.4546 261.229 31.424 260.325 32.1029C259.436 32.7818 258.175 33.1211 256.543 33.1211C255.992 33.1211 255.481 33.0795 255.007 32.9964C254.551 32.9273 254.139 32.8442 253.775 32.7471C253.412 32.6364 253.095 32.5253 252.823 32.4146C252.57 32.2899 252.368 32.1861 252.217 32.1029L252.805 30.4406C253.114 30.6208 253.588 30.8214 254.22 31.0432C254.852 31.265 255.628 31.3757 256.543 31.3757ZM263.483 25.5991C263.483 24.3664 263.659 23.2787 264.008 22.3368C264.372 21.395 264.857 20.6122 265.464 19.9888C266.085 19.3515 266.798 18.8735 267.607 18.5551C268.43 18.2366 269.297 18.0771 270.216 18.0771C271.117 18.0771 271.966 18.2366 272.763 18.5551C273.572 18.8735 274.278 19.3515 274.884 19.9888C275.491 20.6122 275.968 21.395 276.321 22.3368C276.685 23.2787 276.865 24.3664 276.865 25.5991C276.865 26.8319 276.685 27.9196 276.321 28.8614C275.968 29.8033 275.491 30.5929 274.884 31.2302C274.278 31.8536 273.572 32.3247 272.763 32.6432C271.966 32.9617 271.117 33.1211 270.216 33.1211C269.297 33.1211 268.43 32.9617 267.607 32.6432C266.798 32.3247 266.085 31.8536 265.464 31.2302C264.857 30.5929 264.372 29.8033 264.008 28.8614C263.659 27.9196 263.483 26.8319 263.483 25.5991ZM265.545 25.5991C265.545 26.4718 265.655 27.2682 265.868 27.9887C266.085 28.6952 266.386 29.2978 266.78 29.7965C267.184 30.2952 267.669 30.6832 268.235 30.9601C268.812 31.2234 269.459 31.3549 270.176 31.3549C270.889 31.3549 271.528 31.2234 272.094 30.9601C272.66 30.6832 273.138 30.2952 273.532 29.7965C273.936 29.2978 274.245 28.6952 274.461 27.9887C274.675 27.2682 274.785 26.4718 274.785 25.5991C274.785 24.7264 274.675 23.9368 274.461 23.2303C274.245 22.5099 273.936 21.9005 273.532 21.4018C273.138 20.9031 272.66 20.5223 272.094 20.2589C271.528 19.982 270.889 19.8434 270.176 19.8434C269.459 19.8434 268.812 19.982 268.235 20.2589C267.669 20.5223 267.184 20.9031 266.78 21.4018C266.386 21.9005 266.085 22.5099 265.868 23.2303C265.655 23.9368 265.545 24.7264 265.545 25.5991ZM285.808 33.1211C284.823 33.1211 283.926 32.9549 283.117 32.6224C282.309 32.2899 281.618 31.8052 281.037 31.1679C280.456 30.5305 280.004 29.7481 279.681 28.8199C279.372 27.878 279.218 26.8043 279.218 25.5991C279.218 24.3939 279.394 23.3274 279.743 22.3992C280.107 21.4573 280.592 20.6677 281.199 20.0304C281.805 19.393 282.511 18.9083 283.32 18.5758C284.128 18.2434 284.992 18.0771 285.907 18.0771C286.488 18.0771 287.006 18.1187 287.466 18.2018C287.936 18.2849 288.34 18.382 288.679 18.4927C289.028 18.6034 289.311 18.7145 289.528 18.8252C289.744 18.9359 289.892 19.019 289.972 19.0745L289.406 20.7369C289.285 20.6537 289.109 20.5638 288.881 20.4667C288.653 20.3696 288.388 20.2729 288.09 20.1758C287.807 20.0787 287.491 20.0028 287.142 19.9472C286.804 19.8781 286.462 19.8434 286.109 19.8434C285.371 19.8434 284.702 19.9748 284.11 20.2382C283.518 20.5015 283.011 20.8823 282.592 21.381C282.176 21.8797 281.853 22.4891 281.621 23.2095C281.408 23.916 281.298 24.7124 281.298 25.5991C281.298 26.4579 281.394 27.2407 281.581 27.9471C281.783 28.6536 282.081 29.263 282.471 29.7757C282.864 30.2744 283.349 30.6624 283.926 30.9393C284.521 31.2162 285.209 31.3549 285.988 31.3549C286.892 31.3549 287.642 31.2578 288.234 31.064C288.826 30.8702 289.27 30.6968 289.568 30.5445L290.072 32.2068C289.98 32.276 289.811 32.3663 289.568 32.477C289.325 32.574 289.02 32.6708 288.656 32.7679C288.293 32.865 287.87 32.9481 287.385 33.0172C286.9 33.0863 286.374 33.1211 285.808 33.1211ZM292.321 18.4096H294.28V32.8094H292.321V18.4096ZM307.108 32.8094C306.88 32.186 306.663 31.5767 306.461 30.9809C306.259 30.3715 306.049 29.7549 305.836 29.1315H299.488L298.213 32.8094H296.173C296.71 31.2858 297.217 29.8796 297.687 28.5913C298.158 27.289 298.617 26.0563 299.062 24.8926C299.521 23.729 299.974 22.6209 300.418 21.568C300.863 20.5015 301.326 19.4486 301.811 18.4096H303.612C304.098 19.4486 304.561 20.5015 305.005 21.568C305.45 22.6209 305.895 23.729 306.34 24.8926C306.799 26.0563 307.262 27.289 307.736 28.5913C308.207 29.8796 308.71 31.2858 309.251 32.8094H307.108ZM305.27 27.4692C304.836 26.264 304.406 25.1004 303.976 23.9784C303.557 22.8423 303.12 21.755 302.66 20.7161C302.19 21.755 301.738 22.8423 301.308 23.9784C300.889 25.1004 300.47 26.264 300.054 27.4692H305.27ZM319.211 18.4096V20.155H314.804V32.8094H312.842V20.155H308.435V18.4096H319.211ZM321.281 18.4096H323.24V32.8094H321.281V18.4096ZM326.144 25.5991C326.144 24.3664 326.32 23.2787 326.669 22.3368C327.033 21.395 327.518 20.6122 328.125 19.9888C328.746 19.3515 329.459 18.8735 330.268 18.5551C331.091 18.2366 331.958 18.0771 332.877 18.0771C333.778 18.0771 334.627 18.2366 335.424 18.5551C336.233 18.8735 336.939 19.3515 337.545 19.9888C338.152 20.6122 338.629 21.395 338.982 22.3368C339.346 23.2787 339.526 24.3664 339.526 25.5991C339.526 26.8319 339.346 27.9196 338.982 28.8614C338.629 29.8033 338.152 30.5929 337.545 31.2302C336.939 31.8536 336.233 32.3247 335.424 32.6432C334.627 32.9617 333.778 33.1211 332.877 33.1211C331.958 33.1211 331.091 32.9617 330.268 32.6432C329.459 32.3247 328.746 31.8536 328.125 31.2302C327.518 30.5929 327.033 29.8033 326.669 28.8614C326.32 27.9196 326.144 26.8319 326.144 25.5991ZM328.206 25.5991C328.206 26.4718 328.312 27.2682 328.529 27.9887C328.746 28.6952 329.047 29.2978 329.441 29.7965C329.845 30.2952 330.33 30.6832 330.896 30.9601C331.473 31.2234 332.12 31.3549 332.837 31.3549C333.55 31.3549 334.189 31.2234 334.755 30.9601C335.321 30.6832 335.799 30.2952 336.193 29.7965C336.597 29.2978 336.906 28.6952 337.122 27.9887C337.336 27.2682 337.446 26.4718 337.446 25.5991C337.446 24.7264 337.336 23.9368 337.122 23.2303C336.906 22.5099 336.597 21.9005 336.193 21.4018C335.799 20.9031 335.321 20.5223 334.755 20.2589C334.189 19.982 333.55 19.8434 332.837 19.8434C332.12 19.8434 331.473 19.982 330.896 20.2589C330.33 20.5223 329.845 20.9031 329.441 21.4018C329.047 21.9005 328.746 22.5099 328.529 23.2303C328.312 23.9368 328.206 24.7264 328.206 25.5991ZM352.045 32.8094C351.751 32.2967 351.406 31.7221 351.016 31.0848C350.638 30.4474 350.226 29.7897 349.781 29.1108C349.336 28.4183 348.873 27.7186 348.388 27.0121C347.914 26.3056 347.443 25.6267 346.973 24.9758C346.499 24.3108 346.043 23.6875 345.598 23.1057C345.154 22.5238 344.742 22.0112 344.363 21.568V32.8094H342.445V18.4096H343.999C344.635 19.1021 345.308 19.9125 346.021 20.8407C346.749 21.755 347.465 22.7041 348.164 23.6875C348.881 24.6573 349.546 25.6131 350.167 26.555C350.799 27.4968 351.332 28.3351 351.762 29.0692V18.4096H353.685V32.8094H352.045ZM361.264 25.5991C361.264 24.3664 361.44 23.2787 361.789 22.3368C362.153 21.395 362.638 20.6122 363.245 19.9888C363.866 19.3515 364.579 18.8735 365.388 18.5551C366.211 18.2366 367.078 18.0771 367.997 18.0771C368.898 18.0771 369.747 18.2366 370.544 18.5551C371.353 18.8735 372.059 19.3515 372.665 19.9888C373.272 20.6122 373.749 21.395 374.102 22.3368C374.466 23.2787 374.646 24.3664 374.646 25.5991C374.646 26.8319 374.466 27.9196 374.102 28.8614C373.749 29.8033 373.272 30.5929 372.665 31.2302C372.059 31.8536 371.353 32.3247 370.544 32.6432C369.747 32.9617 368.898 33.1211 367.997 33.1211C367.078 33.1211 366.211 32.9617 365.388 32.6432C364.579 32.3247 363.866 31.8536 363.245 31.2302C362.638 30.5929 362.153 29.8033 361.789 28.8614C361.44 27.9196 361.264 26.8319 361.264 25.5991ZM363.326 25.5991C363.326 26.4718 363.436 27.2682 363.649 27.9887C363.866 28.6952 364.167 29.2978 364.561 29.7965C364.965 30.2952 365.45 30.6832 366.016 30.9601C366.593 31.2234 367.24 31.3549 367.957 31.3549C368.67 31.3549 369.309 31.2234 369.875 30.9601C370.441 30.6832 370.919 30.2952 371.313 29.7965C371.717 29.2978 372.026 28.6952 372.242 27.9887C372.456 27.2682 372.566 26.4718 372.566 25.5991C372.566 24.7264 372.456 23.9368 372.242 23.2303C372.026 22.5099 371.717 21.9005 371.313 21.4018C370.919 20.9031 370.441 20.5223 369.875 20.2589C369.309 19.982 368.67 19.8434 367.957 19.8434C367.24 19.8434 366.593 19.982 366.016 20.2589C365.45 20.5223 364.965 20.9031 364.561 21.4018C364.167 21.9005 363.866 22.5099 363.649 23.2303C363.436 23.9368 363.326 24.7264 363.326 25.5991ZM377.565 32.8094V18.4096H386.015V20.1343H379.524V24.4771H385.287V26.1809H379.524V32.8094H377.565Z" fill="#AEC5CE"/>
<path d="M111.182 41.9793C111.424 42.4195 111.7 42.9663 112.009 43.6201C112.332 44.2604 112.661 44.9607 112.997 45.7211C113.347 46.468 113.689 47.2352 114.026 48.0222C114.362 48.8091 114.678 49.5494 114.973 50.2432C115.269 49.5494 115.585 48.8091 115.921 48.0222C116.257 47.2352 116.593 46.468 116.929 45.7211C117.279 44.9607 117.608 44.2604 117.917 43.6201C118.24 42.9663 118.522 42.4195 118.764 41.9793H121.628C121.762 42.8998 121.883 43.9337 121.991 45.0808C122.112 46.2148 122.213 47.4019 122.293 48.6424C122.387 49.8696 122.468 51.1036 122.535 52.3442C122.616 53.5848 122.683 54.7518 122.737 55.8458H119.672C119.631 54.4986 119.578 53.031 119.51 51.4438C119.443 49.8565 119.343 48.2557 119.208 46.6415C118.966 47.2018 118.697 47.8221 118.401 48.5024C118.106 49.1827 117.81 49.863 117.514 50.5433C117.232 51.2236 116.956 51.8774 116.687 52.5043C116.419 53.118 116.19 53.6448 116.002 54.085H113.804C113.616 53.6448 113.387 53.118 113.118 52.5043C112.849 51.8774 112.567 51.2236 112.271 50.5433C111.989 49.863 111.7 49.1827 111.404 48.5024C111.108 47.8221 110.84 47.2018 110.598 46.6415C110.463 48.2557 110.362 49.8565 110.295 51.4438C110.228 53.031 110.174 54.4986 110.134 55.8458H107.069C107.123 54.7518 107.183 53.5848 107.25 52.3442C107.331 51.1036 107.412 49.8696 107.492 48.6424C107.587 47.4019 107.687 46.2148 107.795 45.0808C107.916 43.9337 108.043 42.8998 108.178 41.9793H111.182ZM125.569 55.8458V41.9793H135.006V44.6006H128.715V47.3218H134.3V49.883H128.715V53.2246H135.47V55.8458H125.569ZM148.163 41.9793V44.6406H143.948V55.8458H140.803V44.6406H136.588V41.9793H148.163ZM157.886 55.8458C157.739 55.3656 157.571 54.8719 157.382 54.3651C157.208 53.8583 157.033 53.3512 156.858 52.8444H151.414C151.239 53.3512 151.058 53.8583 150.869 54.3651C150.695 54.8719 150.533 55.3656 150.385 55.8458H147.119C147.643 54.3517 148.14 52.971 148.611 51.7039C149.081 50.4367 149.538 49.2427 149.982 48.1222C150.439 47.0017 150.883 45.9412 151.313 44.9407C151.756 43.9268 152.214 42.9398 152.684 41.9793H155.689C156.146 42.9398 156.596 43.9268 157.04 44.9407C157.483 45.9412 157.927 47.0017 158.37 48.1222C158.828 49.2427 159.291 50.4367 159.762 51.7039C160.233 52.971 160.73 54.3517 161.254 55.8458H157.886ZM154.116 45.1208C154.049 45.3209 153.948 45.5945 153.813 45.9412C153.679 46.2879 153.524 46.6881 153.349 47.1417C153.175 47.5954 152.98 48.0956 152.765 48.6424C152.563 49.1893 152.355 49.763 152.14 50.3632H156.112C155.897 49.763 155.689 49.1893 155.487 48.6424C155.285 48.0956 155.091 47.5954 154.902 47.1417C154.728 46.6881 154.573 46.2879 154.438 45.9412C154.304 45.5945 154.196 45.3209 154.116 45.1208ZM167.721 56.0259C166.955 56.0259 166.188 55.9993 165.422 55.9459C164.67 55.9058 163.883 55.7992 163.063 55.6257V42.1794C163.708 42.0594 164.414 41.9728 165.18 41.9193C165.946 41.8527 166.659 41.8193 167.318 41.8193C168.205 41.8193 169.018 41.8858 169.758 42.0193C170.51 42.1394 171.156 42.353 171.693 42.6596C172.231 42.9663 172.648 43.3734 172.944 43.8802C173.253 44.3739 173.407 44.9873 173.407 45.7211C173.407 46.8281 172.87 47.702 171.794 48.3423C172.682 48.6759 173.286 49.1292 173.609 49.7029C173.932 50.2767 174.093 50.9235 174.093 51.6439C174.093 53.098 173.555 54.1916 172.48 54.9254C171.418 55.6592 169.832 56.0259 167.721 56.0259ZM166.128 49.803V53.3847C166.356 53.4112 166.605 53.4312 166.874 53.4447C167.143 53.4582 167.439 53.4647 167.761 53.4647C168.702 53.4647 169.462 53.3312 170.04 53.0645C170.618 52.7978 170.907 52.3042 170.907 51.5838C170.907 50.9435 170.665 50.4899 170.181 50.2232C169.697 49.9431 169.005 49.803 168.104 49.803H166.128ZM166.128 47.4219H167.66C168.628 47.4219 169.321 47.3018 169.737 47.0617C170.154 46.8081 170.363 46.4079 170.363 45.8611C170.363 45.3009 170.147 44.9072 169.717 44.6806C169.287 44.4539 168.655 44.3404 167.822 44.3404C167.553 44.3404 167.264 44.347 166.955 44.3604C166.646 44.3604 166.37 44.3739 166.128 44.4005V47.4219ZM179.253 48.9026C179.253 49.5829 179.333 50.1966 179.495 50.7434C179.67 51.2902 179.911 51.7639 180.221 52.1641C180.543 52.5508 180.933 52.851 181.39 53.0645C181.847 53.2781 182.372 53.3847 182.963 53.3847C183.541 53.3847 184.058 53.2781 184.516 53.0645C184.986 52.851 185.376 52.5508 185.685 52.1641C186.008 51.7639 186.25 51.2902 186.411 50.7434C186.586 50.1966 186.673 49.5829 186.673 48.9026C186.673 48.2223 186.586 47.6085 186.411 47.0617C186.25 46.5014 186.008 46.0278 185.685 45.641C185.376 45.2409 184.986 44.9342 184.516 44.7206C184.058 44.5071 183.541 44.4005 182.963 44.4005C182.372 44.4005 181.847 44.514 181.39 44.7406C180.933 44.9542 180.543 45.2609 180.221 45.6611C179.911 46.0478 179.67 46.5215 179.495 47.0817C179.333 47.6285 179.253 48.2357 179.253 48.9026ZM189.92 48.9026C189.92 50.0897 189.738 51.1371 189.375 52.044C189.026 52.9379 188.542 53.6914 187.923 54.3051C187.305 54.9054 186.566 55.359 185.705 55.6657C184.858 55.9724 183.944 56.1259 182.963 56.1259C182.009 56.1259 181.108 55.9724 180.261 55.6657C179.414 55.359 178.674 54.9054 178.043 54.3051C177.411 53.6914 176.914 52.9379 176.551 52.044C176.188 51.1371 176.006 50.0897 176.006 48.9026C176.006 47.7155 176.194 46.675 176.571 45.7811C176.947 44.8741 177.451 44.1138 178.083 43.5C178.728 42.8863 179.468 42.4261 180.301 42.1194C181.148 41.8127 182.035 41.6592 182.963 41.6592C183.917 41.6592 184.818 41.8127 185.665 42.1194C186.512 42.4261 187.251 42.8863 187.883 43.5C188.515 44.1138 189.012 44.8741 189.375 45.7811C189.738 46.675 189.92 47.7155 189.92 48.9026ZM201.878 53.1646V55.8458H192.542V41.9793H195.688V53.1646H201.878ZM203.904 41.9793H207.05V55.8458H203.904V41.9793ZM216.657 56.1259C214.385 56.1259 212.651 55.4991 211.454 54.2451C210.271 52.991 209.68 51.2102 209.68 48.9026C209.68 47.7555 209.861 46.735 210.224 45.8411C210.587 44.9342 211.084 44.1738 211.716 43.5601C212.348 42.9332 213.101 42.4596 213.975 42.1394C214.849 41.8193 215.796 41.6592 216.818 41.6592C217.409 41.6592 217.947 41.7058 218.431 41.7992C218.915 41.8793 219.339 41.9793 219.702 42.0994C220.065 42.206 220.367 42.3195 220.609 42.4395C220.851 42.5596 221.025 42.6531 221.133 42.7197L220.226 45.2409C219.795 45.0142 219.291 44.8207 218.714 44.6606C218.149 44.5005 217.504 44.4205 216.778 44.4205C216.294 44.4205 215.816 44.5005 215.346 44.6606C214.889 44.8207 214.479 45.0808 214.116 45.4409C213.766 45.7877 213.484 46.2413 213.269 46.8016C213.054 47.3619 212.946 48.0422 212.946 48.8425C212.946 49.4828 213.014 50.0831 213.148 50.6434C213.296 51.1902 213.524 51.6639 213.834 52.064C214.156 52.4642 214.573 52.7844 215.084 53.0245C215.595 53.2511 216.213 53.3647 216.939 53.3647C217.396 53.3647 217.806 53.3381 218.169 53.2846C218.532 53.2311 218.855 53.1711 219.137 53.1045C219.419 53.0245 219.668 52.9379 219.883 52.8444C220.098 52.7509 220.293 52.6643 220.468 52.5843L221.335 55.0855C220.891 55.3521 220.266 55.5922 219.46 55.8058C218.653 56.0194 217.718 56.1259 216.657 56.1259ZM237.561 55.8458C237.413 55.3656 237.245 54.8719 237.057 54.3651C236.882 53.8583 236.707 53.3512 236.533 52.8444H231.088C230.913 53.3512 230.732 53.8583 230.544 54.3651C230.369 54.8719 230.207 55.3656 230.06 55.8458H226.793C227.317 54.3517 227.814 52.971 228.285 51.7039C228.756 50.4367 229.213 49.2427 229.656 48.1222C230.113 47.0017 230.557 45.9412 230.987 44.9407C231.431 43.9268 231.888 42.9398 232.358 41.9793H235.363C235.82 42.9398 236.27 43.9268 236.714 44.9407C237.158 45.9412 237.601 47.0017 238.045 48.1222C238.502 49.2427 238.965 50.4367 239.436 51.7039C239.907 52.971 240.404 54.3517 240.928 55.8458H237.561ZM233.79 45.1208C233.723 45.3209 233.622 45.5945 233.488 45.9412C233.353 46.2879 233.198 46.6881 233.024 47.1417C232.849 47.5954 232.654 48.0956 232.439 48.6424C232.237 49.1893 232.029 49.763 231.814 50.3632H235.786C235.571 49.763 235.363 49.1893 235.161 48.6424C234.96 48.0956 234.765 47.5954 234.577 47.1417C234.402 46.6881 234.247 46.2879 234.113 45.9412C233.978 45.5945 233.871 45.3209 233.79 45.1208ZM252.114 55.8458C251.212 54.2585 250.237 52.6909 249.189 51.1436C248.14 49.5964 247.026 48.1357 245.841 46.7616V55.8458H242.736V41.9793H245.299C245.742 42.4195 246.234 42.9598 246.769 43.6001C247.308 44.2404 247.85 44.9273 248.404 45.6611C248.969 46.3814 249.526 47.1352 250.076 47.9221C250.629 48.6959 251.146 49.4428 251.63 50.1632V41.9793H254.754V55.8458H252.114ZM261.126 53.3046C261.273 53.3181 261.441 53.3312 261.628 53.3446C261.83 53.3446 262.065 53.3446 262.336 53.3446C263.909 53.3446 265.071 52.951 265.823 52.1641C266.589 51.3772 266.974 50.2898 266.974 48.9026C266.974 47.4484 266.611 46.3479 265.885 45.601C265.159 44.8541 264.008 44.4805 262.435 44.4805C262.219 44.4805 261.999 44.487 261.771 44.5005C261.54 44.5005 261.328 44.514 261.126 44.5405V53.3046ZM270.219 48.9026C270.219 50.1031 270.032 51.1502 269.654 52.044C269.276 52.9379 268.741 53.6783 268.041 54.2651C267.355 54.8519 266.516 55.2921 265.522 55.5857C264.525 55.8793 263.41 56.0259 262.175 56.0259C261.61 56.0259 260.95 55.9993 260.199 55.9459C259.443 55.9058 258.706 55.8123 257.98 55.6657V42.1594C258.706 42.0259 259.458 41.9393 260.239 41.8993C261.031 41.8458 261.709 41.8193 262.274 41.8193C263.469 41.8193 264.554 41.9528 265.522 42.2194C266.501 42.4861 267.341 42.9063 268.041 43.48C268.741 44.0538 269.276 44.7872 269.654 45.6811C270.032 46.5749 270.219 47.6485 270.219 48.9026ZM282.35 56.0259C281.584 56.0259 280.818 55.9993 280.052 55.9459C279.296 55.9058 278.512 55.7992 277.691 55.6257V42.1794C278.336 42.0594 279.043 41.9728 279.81 41.9193C280.576 41.8527 281.287 41.8193 281.947 41.8193C282.834 41.8193 283.645 41.8858 284.385 42.0193C285.137 42.1394 285.782 42.353 286.321 42.6596C286.86 42.9663 287.274 43.3734 287.571 43.8802C287.879 44.3739 288.037 44.9873 288.037 45.7211C288.037 46.8281 287.498 47.702 286.424 48.3423C287.311 48.6759 287.916 49.1292 288.239 49.7029C288.561 50.2767 288.722 50.9235 288.722 51.6439C288.722 53.098 288.184 54.1916 287.109 54.9254C286.046 55.6592 284.459 56.0259 282.35 56.0259ZM280.756 49.803V53.3847C280.983 53.4112 281.232 53.4312 281.504 53.4447C281.771 53.4582 282.068 53.4647 282.391 53.4647C283.329 53.4647 284.088 53.3312 284.668 53.0645C285.247 52.7978 285.536 52.3042 285.536 51.5838C285.536 50.9435 285.295 50.4899 284.811 50.2232C284.327 49.9431 283.634 49.803 282.732 49.803H280.756ZM280.756 47.4219H282.288C283.256 47.4219 283.949 47.3018 284.367 47.0617C284.781 46.8081 284.99 46.4079 284.99 45.8611C284.99 45.3009 284.774 44.9072 284.345 44.6806C283.916 44.4539 283.282 44.3404 282.449 44.3404C282.182 44.3404 281.892 44.347 281.584 44.3604C281.273 44.3604 280.998 44.3739 280.756 44.4005V47.4219ZM300.4 55.8458C300.249 55.3656 300.081 54.8719 299.894 54.3651C299.718 53.8583 299.545 53.3512 299.369 52.8444H293.925C293.749 53.3512 293.569 53.8583 293.382 54.3651C293.206 54.8719 293.045 55.3656 292.898 55.8458H289.632C290.156 54.3517 290.651 52.971 291.124 51.7039C291.593 50.4367 292.051 49.2427 292.495 48.1222C292.95 47.0017 293.393 45.9412 293.826 44.9407C294.27 43.9268 294.724 42.9398 295.197 41.9793H298.2C298.658 42.9398 299.109 43.9268 299.553 44.9407C299.996 45.9412 300.44 47.0017 300.884 48.1222C301.338 49.2427 301.804 50.4367 302.273 51.7039C302.742 52.971 303.241 54.3517 303.765 55.8458H300.4ZM296.627 45.1208C296.561 45.3209 296.458 45.5945 296.326 45.9412C296.191 46.2879 296.037 46.6881 295.861 47.1417C295.685 47.5954 295.49 48.0956 295.278 48.6424C295.076 49.1893 294.867 49.763 294.651 50.3632H298.625C298.409 49.763 298.2 49.1893 297.998 48.6424C297.797 48.0956 297.602 47.5954 297.415 47.1417C297.239 46.6881 297.085 46.2879 296.95 45.9412C296.814 45.5945 296.708 45.3209 296.627 45.1208ZM309.668 41.8193C311.765 41.8193 313.371 42.1929 314.486 42.9398C315.604 43.6736 316.161 44.8207 316.161 46.3814C316.161 47.3553 315.934 48.1488 315.476 48.7625C315.032 49.3628 314.387 49.8365 313.54 50.1832C313.822 50.5299 314.119 50.9301 314.427 51.3837C314.735 51.8239 315.039 52.2907 315.333 52.7844C315.644 53.2646 315.938 53.7714 316.22 54.3051C316.502 54.8253 316.766 55.339 317.008 55.8458H313.477C313.224 55.3921 312.96 54.9319 312.693 54.4652C312.436 53.9984 312.169 53.5447 311.886 53.1045C311.619 52.6643 311.347 52.2507 311.08 51.8639C310.812 51.4638 310.541 51.1036 310.273 50.7834H308.719V55.8458H305.573V42.1794C306.258 42.0459 306.966 41.9528 307.692 41.8993C308.433 41.8458 309.089 41.8193 309.668 41.8193ZM309.848 44.4805C309.62 44.4805 309.411 44.487 309.225 44.5005C309.049 44.514 308.88 44.5271 308.719 44.5405V48.3023H309.606C310.79 48.3023 311.637 48.1557 312.147 47.8621C312.66 47.5685 312.913 47.0683 312.913 46.3614C312.913 45.6811 312.652 45.2008 312.128 44.9207C311.619 44.6271 310.856 44.4805 309.848 44.4805ZM319.025 41.9793H322.17V55.8458H319.025V41.9793ZM334.76 55.8458C334.614 55.3656 334.445 54.8719 334.258 54.3651C334.082 53.8583 333.906 53.3512 333.734 52.8444H328.289C328.113 53.3512 327.934 53.8583 327.743 54.3651C327.571 54.8719 327.409 55.3656 327.259 55.8458H323.992C324.517 54.3517 325.015 52.971 325.485 51.7039C325.958 50.4367 326.412 49.2427 326.856 48.1222C327.314 47.0017 327.758 45.9412 328.187 44.9407C328.63 43.9268 329.089 42.9398 329.558 41.9793H332.564C333.019 42.9398 333.47 43.9268 333.913 44.9407C334.357 45.9412 334.801 47.0017 335.244 48.1222C335.703 49.2427 336.165 50.4367 336.638 51.7039C337.107 52.971 337.605 54.3517 338.13 55.8458H334.76ZM330.991 45.1208C330.922 45.3209 330.823 45.5945 330.687 45.9412C330.555 46.2879 330.397 46.6881 330.225 47.1417C330.049 47.5954 329.855 48.0956 329.639 48.6424C329.437 49.1893 329.228 49.763 329.015 50.3632H332.986C332.773 49.763 332.564 49.1893 332.363 48.6424C332.161 48.0956 331.967 47.5954 331.776 47.1417C331.604 46.6881 331.446 46.2879 331.314 45.9412C331.178 45.5945 331.072 45.3209 330.991 45.1208ZM348.648 41.9793V44.6406H344.432V55.8458H341.286V44.6406H337.074V41.9793H348.648ZM354.764 41.8193C356.861 41.8193 358.467 42.1929 359.581 42.9398C360.7 43.6736 361.257 44.8207 361.257 46.3814C361.257 47.3553 361.026 48.1488 360.571 48.7625C360.128 49.3628 359.482 49.8365 358.635 50.1832C358.918 50.5299 359.211 50.9301 359.523 51.3837C359.831 51.8239 360.135 52.2907 360.428 52.7844C360.74 53.2646 361.033 53.7714 361.315 54.3051C361.598 54.8253 361.862 55.339 362.104 55.8458H358.573C358.32 55.3921 358.056 54.9319 357.788 54.4652C357.532 53.9984 357.264 53.5447 356.982 53.1045C356.711 52.6643 356.443 52.2507 356.175 51.8639C355.904 51.4638 355.636 51.1036 355.369 50.7834H353.814V55.8458H350.668V42.1794C351.354 42.0459 352.062 41.9528 352.788 41.8993C353.525 41.8458 354.184 41.8193 354.764 41.8193ZM354.943 44.4805C354.716 44.4805 354.507 44.487 354.32 44.5005C354.144 44.514 353.976 44.5271 353.814 44.5405V48.3023H354.701C355.886 48.3023 356.733 48.1557 357.242 47.8621C357.755 47.5685 358.008 47.0683 358.008 46.3614C358.008 45.6811 357.748 45.2008 357.224 44.9207C356.711 44.6271 355.952 44.4805 354.943 44.4805ZM364.12 41.9793H367.266V55.8458H364.12V41.9793ZM376.872 56.1259C374.599 56.1259 372.864 55.4991 371.669 54.2451C370.485 52.991 369.895 51.2102 369.895 48.9026C369.895 47.7555 370.074 46.735 370.437 45.8411C370.8 44.9342 371.299 44.1738 371.929 43.5601C372.564 42.9332 373.315 42.4596 374.188 42.1394C375.064 41.8193 376.01 41.6592 377.033 41.6592C377.623 41.6592 378.162 41.7058 378.646 41.7992C379.13 41.8793 379.552 41.9793 379.915 42.0994C380.278 42.206 380.582 42.3195 380.824 42.4395C381.066 42.5596 381.242 42.6531 381.348 42.7197L380.439 45.2409C380.01 45.0142 379.508 44.8207 378.928 44.6606C378.364 44.5005 377.719 44.4205 376.993 44.4205C376.509 44.4205 376.032 44.5005 375.559 44.6606C375.104 44.8207 374.694 45.0808 374.331 45.4409C373.983 45.7877 373.7 46.2413 373.484 46.8016C373.268 47.3619 373.161 48.0422 373.161 48.8425C373.161 49.4828 373.227 50.0831 373.363 50.6434C373.51 51.1902 373.741 51.6639 374.049 52.064C374.371 52.4642 374.789 52.7844 375.299 53.0245C375.808 53.2511 376.428 53.3647 377.154 53.3647C377.612 53.3647 378.019 53.3381 378.382 53.2846C378.745 53.2311 379.068 53.1711 379.35 53.1045C379.632 53.0245 379.882 52.9379 380.098 52.8444C380.314 52.7509 380.509 52.6643 380.681 52.5843L381.55 55.0855C381.106 55.3521 380.479 55.5922 379.673 55.8058C378.866 56.0194 377.935 56.1259 376.872 56.1259ZM110.662 77.385C112.706 77.385 113.727 76.6912 113.727 75.304C113.727 74.8773 113.633 74.5171 113.445 74.2235C113.27 73.9168 113.028 73.6567 112.719 73.4431C112.41 73.2165 112.054 73.0229 111.65 72.8629C111.261 72.7028 110.844 72.5427 110.4 72.3826C109.889 72.2091 109.405 72.0159 108.948 71.8024C108.491 71.5757 108.095 71.3156 107.758 71.022C107.423 70.7153 107.153 70.3551 106.952 69.9415C106.764 69.5279 106.67 69.0276 106.67 68.4408C106.67 67.2268 107.086 66.2798 107.92 65.5995C108.753 64.9192 109.903 64.579 111.368 64.579C112.215 64.579 112.981 64.6725 113.667 64.8591C114.366 65.0327 114.877 65.2258 115.199 65.4394L114.574 67.0201C114.292 66.8466 113.868 66.68 113.304 66.5199C112.753 66.3464 112.107 66.2598 111.368 66.2598C110.992 66.2598 110.642 66.2998 110.319 66.3798C109.997 66.4599 109.714 66.5799 109.472 66.74C109.23 66.9001 109.036 67.1067 108.888 67.3603C108.753 67.6004 108.686 67.8871 108.686 68.2207C108.686 68.5943 108.76 68.9076 108.908 69.1611C109.056 69.4147 109.264 69.6414 109.533 69.8415C109.802 70.0281 110.111 70.2016 110.461 70.3617C110.823 70.5218 111.22 70.6818 111.65 70.8419C112.255 71.082 112.807 71.3222 113.304 71.5623C113.815 71.8024 114.251 72.0891 114.614 72.4227C114.991 72.7563 115.28 73.1565 115.482 73.6232C115.683 74.0769 115.784 74.6302 115.784 75.284C115.784 76.498 115.334 77.4316 114.433 78.0853C113.546 78.7391 112.289 79.0658 110.662 79.0658C110.111 79.0658 109.6 79.0257 109.13 78.9457C108.673 78.8791 108.263 78.7991 107.9 78.7056C107.537 78.599 107.221 78.492 106.952 78.3854C106.697 78.2654 106.495 78.1654 106.347 78.0853L106.932 76.4846C107.241 76.6581 107.712 76.8513 108.343 77.0648C108.975 77.2784 109.748 77.385 110.662 77.385ZM123.351 79.0658C122.437 79.0658 121.643 78.9257 120.971 78.6456C120.299 78.3654 119.748 77.9853 119.318 77.505C118.888 77.0114 118.565 76.4311 118.35 75.7642C118.148 75.0974 118.047 74.377 118.047 73.6032V64.8991H120.003V73.3831C120.003 74.7703 120.312 75.7777 120.931 76.4045C121.549 77.0314 122.356 77.345 123.351 77.345C123.848 77.345 124.298 77.2715 124.702 77.1249C125.118 76.9648 125.474 76.7247 125.77 76.4045C126.066 76.0844 126.295 75.6776 126.456 75.184C126.617 74.6772 126.698 74.0769 126.698 73.3831V64.8991H128.654V73.6032C128.654 74.377 128.546 75.0974 128.331 75.7642C128.13 76.4311 127.807 77.0114 127.363 77.505C126.933 77.9853 126.382 78.3654 125.71 78.6456C125.051 78.9257 124.265 79.0658 123.351 79.0658ZM138.867 72.9629C139.082 73.2296 139.351 73.5832 139.673 74.0234C140.01 74.4502 140.352 74.9304 140.702 75.4641C141.051 75.9843 141.394 76.5311 141.73 77.1049C142.08 77.6786 142.375 78.2319 142.617 78.7656H140.48C140.211 78.2588 139.915 77.7452 139.593 77.2249C139.284 76.7047 138.968 76.211 138.645 75.7442C138.322 75.264 138 74.8172 137.677 74.4036C137.368 73.9899 137.086 73.6298 136.83 73.3231C136.655 73.3365 136.474 73.3431 136.286 73.3431C136.111 73.3431 135.929 73.3431 135.741 73.3431H133.987V78.7656H132.031V65.0992C132.582 64.9657 133.194 64.8791 133.866 64.8391C134.552 64.7856 135.177 64.7591 135.741 64.7591C137.704 64.7591 139.196 65.1258 140.218 65.8596C141.253 66.5934 141.77 67.687 141.77 69.1411C141.77 70.0616 141.522 70.8485 141.024 71.5022C140.54 72.156 139.821 72.6428 138.867 72.9629ZM135.903 66.4599C135.069 66.4599 134.431 66.4799 133.987 66.5199V71.7423H135.378C136.05 71.7423 136.655 71.7089 137.193 71.6423C137.731 71.5757 138.181 71.4488 138.544 71.2621C138.921 71.0755 139.21 70.8154 139.411 70.4818C139.613 70.135 139.714 69.6814 139.714 69.1211C139.714 68.6009 139.613 68.1672 139.411 67.8205C139.21 67.4738 138.934 67.2002 138.584 67.0001C138.248 66.8 137.845 66.66 137.375 66.5799C136.917 66.4999 136.427 66.4599 135.903 66.4599ZM153.026 71.9424H154.982V78.4255C154.82 78.479 154.585 78.539 154.276 78.6056C153.98 78.6721 153.631 78.7391 153.227 78.8056C152.838 78.8722 152.408 78.9257 151.937 78.9657C151.466 79.0192 150.989 79.0458 150.505 79.0458C149.524 79.0458 148.63 78.8857 147.823 78.5655C147.017 78.2454 146.324 77.7786 145.746 77.1649C145.168 76.5511 144.718 75.7977 144.395 74.9038C144.086 74.01 143.931 72.9829 143.931 71.8224C143.931 70.6618 144.106 69.6348 144.456 68.7409C144.819 67.834 145.303 67.0736 145.908 66.4599C146.512 65.8461 147.218 65.3794 148.025 65.0592C148.845 64.7391 149.719 64.579 150.646 64.579C151.278 64.579 151.836 64.619 152.32 64.699C152.817 64.7791 153.241 64.8726 153.59 64.9792C153.94 65.0858 154.222 65.1927 154.437 65.2993C154.666 65.4059 154.82 65.486 154.901 65.5394L154.276 67.1602C153.886 66.9066 153.368 66.7 152.723 66.5399C152.078 66.3664 151.419 66.2798 150.747 66.2798C150.035 66.2798 149.383 66.4064 148.791 66.66C148.213 66.9135 147.716 67.2803 147.299 67.7605C146.896 68.2407 146.58 68.8275 146.351 69.5213C146.123 70.2016 146.008 70.9685 146.008 71.8224C146.008 72.6493 146.103 73.4031 146.291 74.0834C146.492 74.7638 146.788 75.3506 147.178 75.8443C147.581 76.3245 148.072 76.6981 148.65 76.9648C149.242 77.2315 149.934 77.365 150.727 77.365C151.292 77.365 151.769 77.3384 152.159 77.2849C152.562 77.2184 152.851 77.1583 153.026 77.1049V71.9424ZM158.044 78.7656V64.8991H166.574V66.5599H160V70.6818H165.848V72.3026H160V77.1049H167.078V78.7656H158.044ZM168.429 71.8224C168.429 70.6353 168.603 69.5879 168.953 68.6809C169.316 67.7739 169.8 67.0201 170.405 66.4199C171.023 65.8061 171.736 65.3459 172.542 65.0392C173.362 64.7325 174.229 64.579 175.143 64.579C176.044 64.579 176.891 64.7325 177.684 65.0392C178.491 65.3459 179.197 65.8061 179.801 66.4199C180.406 67.0201 180.883 67.7739 181.233 68.6809C181.596 69.5879 181.778 70.6353 181.778 71.8224C181.778 73.0095 181.596 74.0569 181.233 74.9638C180.883 75.8708 180.406 76.6312 179.801 77.2449C179.197 77.8452 178.491 78.2989 177.684 78.6056C176.891 78.9122 176.044 79.0658 175.143 79.0658C174.229 79.0658 173.362 78.9122 172.542 78.6056C171.736 78.2989 171.023 77.8452 170.405 77.2449C169.8 76.6312 169.316 75.8708 168.953 74.9638C168.603 74.0569 168.429 73.0095 168.429 71.8224ZM170.485 71.8224C170.485 72.6628 170.593 73.4297 170.808 74.1235C171.023 74.8038 171.325 75.384 171.715 75.8643C172.119 76.3445 172.603 76.7181 173.167 76.9848C173.745 77.2384 174.39 77.365 175.103 77.365C175.815 77.365 176.454 77.2384 177.019 76.9848C177.583 76.7181 178.06 76.3445 178.45 75.8643C178.854 75.384 179.163 74.8038 179.378 74.1235C179.593 73.4297 179.701 72.6628 179.701 71.8224C179.701 70.982 179.593 70.2216 179.378 69.5413C179.163 68.8475 178.854 68.2607 178.45 67.7805C178.06 67.3003 177.583 66.9335 177.019 66.68C176.454 66.4133 175.815 66.2798 175.103 66.2798C174.39 66.2798 173.745 66.4133 173.167 66.68C172.603 66.9335 172.119 67.3003 171.715 67.7805C171.325 68.2607 171.023 68.8475 170.808 69.5413C170.593 70.2216 170.485 70.982 170.485 71.8224ZM194.266 78.7656C193.97 78.2719 193.628 77.7186 193.237 77.1049C192.861 76.4911 192.451 75.8577 192.007 75.204C191.564 74.5371 191.1 73.8633 190.616 73.183C190.146 72.5027 189.675 71.8489 189.204 71.2221C188.734 70.5818 188.277 69.9815 187.833 69.4213C187.39 68.861 186.98 68.3673 186.603 67.9406V78.7656H184.688V64.8991H186.24C186.872 65.566 187.544 66.3464 188.257 67.2402C188.983 68.1207 189.695 69.0345 190.394 69.9815C191.107 70.9154 191.772 71.8358 192.391 72.7428C193.023 73.6498 193.553 74.4571 193.984 75.1639V64.8991H195.899V78.7656H194.266ZM202.605 77.385C204.648 77.385 205.67 76.6912 205.67 75.304C205.67 74.8773 205.576 74.5171 205.388 74.2235C205.213 73.9168 204.971 73.6567 204.662 73.4431C204.353 73.2165 203.996 73.0229 203.593 72.8629C203.203 72.7028 202.786 72.5427 202.343 72.3826C201.832 72.2091 201.348 72.0159 200.891 71.8024C200.434 71.5757 200.037 71.3156 199.701 71.022C199.365 70.7153 199.096 70.3551 198.895 69.9415C198.706 69.5279 198.612 69.0276 198.612 68.4408C198.612 67.2268 199.029 66.2798 199.862 65.5995C200.696 64.9192 201.845 64.579 203.311 64.579C204.158 64.579 204.924 64.6725 205.609 64.8591C206.309 65.0327 206.819 65.2258 207.142 65.4394L206.517 67.0201C206.234 66.8466 205.811 66.68 205.246 66.5199C204.695 66.3464 204.05 66.2598 203.311 66.2598C202.934 66.2598 202.585 66.2998 202.262 66.3798C201.939 66.4599 201.657 66.5799 201.415 66.74C201.173 66.9001 200.978 67.1067 200.83 67.3603C200.696 67.6004 200.629 67.8871 200.629 68.2207C200.629 68.5943 200.703 68.9076 200.851 69.1611C200.998 69.4147 201.207 69.6414 201.476 69.8415C201.744 70.0281 202.054 70.2016 202.403 70.3617C202.766 70.5218 203.163 70.6818 203.593 70.8419C204.198 71.082 204.749 71.3222 205.246 71.5623C205.757 71.8024 206.194 72.0891 206.557 72.4227C206.934 72.7563 207.223 73.1565 207.424 73.6232C207.626 74.0769 207.727 74.6302 207.727 75.284C207.727 76.498 207.276 77.4316 206.376 78.0853C205.488 78.7391 204.232 79.0658 202.605 79.0658C202.054 79.0658 201.543 79.0257 201.072 78.9457C200.615 78.8791 200.205 78.7991 199.842 78.7056C199.479 78.599 199.163 78.492 198.895 78.3854C198.639 78.2654 198.437 78.1654 198.29 78.0853L198.874 76.4846C199.183 76.6581 199.654 76.8513 200.286 77.0648C200.918 77.2784 201.691 77.385 202.605 77.385Z" fill="white"/>
</svg>
